<svg width="53" height="53" viewBox="0 0 53 53" fill="none" xmlns="http://www.w3.org/2000/svg">
<circle cx="26.5" cy="26.5" r="26.5" fill="#D9D9D9"/>
<path d="M31.7278 10H15.1571C14.5735 10.0154 14.0197 10.2606 13.6158 10.6821C13.212 11.1036 12.9908 11.6674 13.0003 12.2511V40.7489C12.9908 41.3326 13.212 41.8964 13.6158 42.3179C14.0197 42.7394 14.5735 42.9846 15.1571 43H39.1292C39.7128 42.9846 40.2666 42.7394 40.6705 42.3179C41.0743 41.8964 41.2955 41.3326 41.286 40.7489V19.3343L31.7278 10ZM31.3742 12.9346L38.4457 19.8882H31.3742V12.9346ZM15.3574 40.6429V12.3571H29.5003V21.7857H38.9289V40.6429H15.3574Z" fill="black"/>
</svg>
