<svg xmlns="http://www.w3.org/2000/svg" width="256" height="65" viewBox="0 0 256 65" fill="none">
  <path d="M91.6034 14.9592H96.8301V46.0833H106.59V50.9848H91.6034V14.9592Z" fill="white"/>
  <path d="M111.615 28.4872H116.795V50.9848H111.615V28.4872ZM114.159 24.2719C113.203 24.2719 112.401 23.9288 111.753 23.2426C111.106 22.5564 110.782 21.7069 110.782 20.6939C110.782 19.779 111.106 18.9947 111.753 18.3412C112.401 17.6877 113.203 17.3609 114.159 17.3609C115.084 17.3609 115.87 17.6877 116.518 18.3412C117.165 18.9947 117.489 19.779 117.489 20.6939C117.489 21.7069 117.165 22.5564 116.518 23.2426C115.901 23.9288 115.115 24.2719 114.159 24.2719Z" fill="white"/>
  <path d="M136.293 51.4749C134.566 51.4749 133.009 51.0338 131.621 50.1515C130.264 49.2366 129.324 48.191 128.799 47.0146L128.707 50.9848H123.897V14.9592H128.799V28.8303L128.568 32.6534C129.092 31.3463 130.11 30.2354 131.621 29.3204C133.163 28.3728 134.828 27.899 136.616 27.899C138.713 27.899 140.533 28.4055 142.074 29.4184C143.647 30.3987 144.85 31.7875 145.682 33.5847C146.515 35.3492 146.931 37.4078 146.931 39.7605C146.931 42.1458 146.438 44.2208 145.451 45.9853C144.495 47.7498 143.2 49.1059 141.566 50.0535C139.962 51.0011 138.204 51.4749 136.293 51.4749ZM135.46 47.0636C137.464 47.0636 139.006 46.3938 140.085 45.054C141.165 43.6816 141.704 41.9171 141.704 39.7605C141.704 37.5712 141.165 35.8067 140.085 34.4669C139.037 33.0945 137.495 32.4083 135.46 32.4083C133.702 32.4083 132.222 33.0618 131.02 34.3689C129.817 35.6433 129.216 37.3261 129.216 39.4174V39.7605C129.216 41.1656 129.493 42.4236 130.048 43.5346C130.634 44.6456 131.39 45.5115 132.315 46.1323C133.271 46.7532 134.319 47.0636 135.46 47.0636Z" fill="white"/>
  <path d="M162.296 51.4749C159.767 51.4749 157.655 50.9521 155.959 49.9065C154.263 48.8281 153.014 47.4067 152.213 45.6422C151.411 43.845 151.01 41.8844 151.01 39.7605C151.01 37.3751 151.473 35.2838 152.398 33.4866C153.354 31.6894 154.664 30.317 156.329 29.3694C157.994 28.3891 159.875 27.899 161.972 27.899C165.241 27.899 167.661 28.8629 169.234 30.7908C170.838 32.6861 171.639 35.3655 171.639 38.8292C171.639 39.7115 171.593 40.6264 171.5 41.574H156.237C156.576 43.5673 157.239 45.005 158.226 45.8873C159.243 46.7695 160.646 47.2107 162.435 47.2107C163.915 47.2107 165.133 47.08 166.089 46.8186C167.045 46.5571 167.924 46.1977 168.725 45.7402L170.252 49.5143C169.481 50.0372 168.432 50.4946 167.106 50.8867C165.78 51.2789 164.177 51.4749 162.296 51.4749ZM166.783 37.8979C166.813 35.872 166.397 34.4506 165.534 33.6337C164.67 32.7841 163.437 32.3593 161.833 32.3593C158.596 32.3593 156.73 34.2055 156.237 37.8979H166.783Z" fill="white"/>
  <path d="M176.738 28.4872H181.733V32.8985C182.226 31.3954 183.028 30.1863 184.138 29.2714C185.248 28.3565 186.513 27.899 187.931 27.899C188.918 27.899 189.596 27.997 189.966 28.1931L189.272 33.5357C188.995 33.3396 188.394 33.2416 187.469 33.2416C186.019 33.2416 184.693 33.7317 183.491 34.712C182.319 35.6923 181.733 37.2607 181.733 39.4174V50.9848H176.738V28.4872Z" fill="white"/>
  <path d="M200.807 51.4749C199.327 51.4749 197.785 51.2789 196.182 50.8867C194.609 50.4619 193.483 49.9718 192.805 49.4163L194.47 45.2501C196.32 46.6225 198.433 47.3087 200.807 47.3087C203.181 47.3087 204.369 46.5735 204.369 45.103C204.369 44.4495 204.122 43.943 203.629 43.5836C203.135 43.2242 202.256 42.7994 200.992 42.3092L199.234 41.623C197.384 40.8388 195.92 39.9075 194.84 38.8292C193.761 37.7182 193.221 36.2641 193.221 34.4669C193.221 32.4083 193.977 30.8072 195.488 29.6635C197.03 28.4872 199.08 27.899 201.64 27.899C202.904 27.899 204.137 28.046 205.34 28.3401C206.573 28.6342 207.514 29.01 208.161 29.4675L206.357 33.6827C205.957 33.2579 205.309 32.8985 204.415 32.6044C203.551 32.2776 202.58 32.1142 201.501 32.1142C199.311 32.1142 198.217 32.8168 198.217 34.2219C198.217 35.0061 198.51 35.6106 199.096 36.0354C199.682 36.4275 200.637 36.8686 201.963 37.3588C202.087 37.3915 202.565 37.5712 203.397 37.8979C205.371 38.7148 206.835 39.6461 207.791 40.6918C208.747 41.7374 209.225 43.0771 209.225 44.7109C209.225 46.9329 208.424 48.6157 206.82 49.7594C205.247 50.9031 203.243 51.4749 200.807 51.4749Z" fill="white"/>
  <path d="M214.783 28.4872H219.963V50.9848H214.783V28.4872ZM217.327 24.2719C216.371 24.2719 215.569 23.9288 214.921 23.2426C214.274 22.5564 213.95 21.7069 213.95 20.6939C213.95 19.779 214.274 18.9947 214.921 18.3412C215.569 17.6877 216.371 17.3609 217.327 17.3609C218.252 17.3609 219.038 17.6877 219.686 18.3412C220.333 18.9947 220.657 19.779 220.657 20.6939C220.657 21.7069 220.333 22.5564 219.686 23.2426C219.069 23.9288 218.282 24.2719 217.327 24.2719Z" fill="white"/>
  <path d="M228.868 32.7024H225.446V28.4872H228.868V23.6347C228.868 20.6939 229.531 18.4229 230.857 16.8218C232.214 15.1879 234.188 14.371 236.778 14.371C237.826 14.371 239.013 14.6815 240.339 15.3023L239.368 20.3018C239.152 20.0404 238.813 19.7953 238.35 19.5666C237.919 19.3051 237.441 19.1744 236.917 19.1744C234.85 19.1744 233.802 20.5959 233.771 23.4387V28.4872H238.767V32.7024H233.771V50.9848H228.868V32.7024Z" fill="white"/>
  <path d="M245.488 32.8004H241.741V28.4872H245.488V19.3215L250.529 18.1451V28.4872H255.432V32.8004H250.529V50.9848H245.488V32.8004Z" fill="white"/>
  <path d="M43.6026 0C49.9998 0 56.4128 0 62.81 0C62.9363 0 63.0627 0 63.1891 0C63.9157 0.0299763 64.3105 0.419669 64.3263 1.10912C64.3263 2.05338 64.3263 2.98265 64.3263 3.9269C64.3263 6.01026 64.3263 8.1086 64.3263 10.192C64.3263 10.4617 64.4053 10.5217 64.6738 10.5217C66.1428 10.5067 67.596 10.5217 69.065 10.5217C70.0917 10.5217 70.4392 10.8514 70.4392 11.8107C70.4392 24.5506 70.4392 37.3056 70.4392 50.0455C70.4392 50.1804 70.4392 50.3303 70.455 50.4652C70.5024 50.8399 70.3602 51.1546 70.0759 51.4244C67.8961 53.2979 65.7006 55.1865 63.5208 57.06C63.2838 57.2698 62.9995 57.3597 62.6678 57.3597C51.8795 57.3597 41.0753 57.3597 30.287 57.3597C29.4182 57.3597 29.0391 56.985 29.0391 56.1607C29.0391 53.3429 29.0391 50.5401 29.0391 47.7223C29.0391 47.4376 28.9444 47.3177 28.6758 47.1978C26.7488 46.4184 24.9797 45.3692 23.4159 44.0353C23.2422 43.8854 23.1474 43.8704 22.9736 44.0353C21.5047 45.4441 20.0199 46.838 18.5509 48.2469C18.4087 48.3818 18.3771 48.4867 18.4719 48.6666C19.2617 50.2553 18.9616 51.919 17.6663 53.1481C14.1123 56.5354 10.5741 59.8927 7.03594 63.2501C5.88287 64.3442 4.47707 64.7189 2.91331 64.2693C1.36535 63.8196 0.40182 62.8004 0.0859097 61.2866C-0.166819 60.0726 0.133296 58.9335 1.04944 58.0192C2.12353 56.9401 3.24502 55.9059 4.3507 54.8567C6.78322 52.5335 9.26311 50.2254 11.6798 47.8722C13.0382 46.5383 15.0127 46.1486 16.6712 46.9729C16.7976 47.0329 16.8924 47.0329 16.9871 46.928C18.5035 45.4891 20.0041 44.0502 21.5204 42.6264C21.7258 42.4315 21.552 42.3416 21.4415 42.2217C19.8619 40.4681 18.6299 38.5196 17.7769 36.3463C14.9811 29.197 16.845 21.2832 22.5945 15.9474C22.8315 15.7226 22.9105 15.5128 22.9105 15.213C22.8947 10.5667 22.9105 5.90534 22.9105 1.25901C22.9105 0.344728 23.2738 0 24.2531 0C30.6977 0 37.158 0 43.6026 0ZM8.50493 53.7176C6.54628 55.5612 4.58764 57.4197 2.64479 59.2632C2.12353 59.7728 1.98137 60.4023 2.18672 61.0768C2.5974 62.4557 4.39809 62.9054 5.48798 61.9011C6.98856 60.5073 8.45754 59.0834 9.94232 57.6745C10.3688 57.2698 10.7953 56.8501 11.2218 56.4305C12.9277 54.8267 14.6494 53.238 16.3079 51.6043C17.0661 50.8549 16.9397 49.7158 16.1184 48.9963C15.3918 48.3369 14.1913 48.3369 13.4331 49.0413C11.7746 50.5851 10.1477 52.1588 8.50493 53.7176ZM41.6755 52.8183C40.9963 52.8183 40.3013 52.8033 39.6221 52.8033C38.4217 52.8033 37.2212 52.8033 36.0207 52.8033C35.4047 52.8033 34.994 52.4586 34.9151 51.949C34.8361 51.4694 35.1362 51.0347 35.6259 50.8699C35.8154 50.8099 35.9892 50.8249 36.1787 50.8249C38.7218 50.8249 41.2491 50.8099 43.7921 50.8099C43.9343 50.8099 44.0923 50.8249 44.2344 50.8249C49.826 50.8249 55.4177 50.8249 61.0093 50.8249C61.6885 50.8249 61.6885 50.8249 61.6885 50.1804C61.7043 49.476 62.1308 49.0713 62.8732 49.1162C63.9157 49.1912 64.9582 49.2811 66.0165 49.371C66.6957 49.431 67.3907 49.4909 68.0699 49.5509C68.212 49.5659 68.3542 49.5809 68.3542 49.371C68.3384 48.6516 68.4174 47.9322 68.3384 47.1978C68.4016 47.0329 68.37 46.868 68.37 46.7031C68.37 35.492 68.37 24.2808 68.37 13.0547C68.37 12.9648 68.37 12.8898 68.37 12.7999C68.4016 12.5601 68.291 12.5001 68.0383 12.5001C66.98 12.5151 65.9059 12.5001 64.8476 12.5001C64.2474 12.5001 64.3263 12.4252 64.3263 12.9798C64.3263 22.7221 64.3263 32.4644 64.3263 42.2067C64.3263 43.106 63.9472 43.4657 63.0153 43.4657C59.256 43.4657 55.5124 43.4807 51.7531 43.4507C50.9633 43.4507 50.3315 43.5556 49.7944 44.1252C49.4311 44.5149 48.9573 44.7996 48.4518 45.1893C48.6888 45.1893 48.8151 45.1893 48.9573 45.1893C53.4274 45.1893 57.8818 45.1893 62.3519 45.1893C62.6678 45.1893 62.9837 45.1893 63.268 45.3542C63.8841 45.6989 64.042 46.6732 63.1101 47.1528C62.8732 47.1678 62.6362 47.1828 62.3993 47.1828C57.1394 47.1828 51.8637 47.1828 46.6038 47.1828C46.4458 47.1828 46.2878 47.1978 46.1141 47.1978C45.3875 47.1378 44.6925 47.1678 43.9975 47.4526C41.6598 48.3668 39.2114 48.7715 36.6842 48.7715C34.8993 48.7715 33.146 48.5767 31.4242 48.112C31.1873 48.0521 31.0925 48.0521 31.1083 48.3219C31.1241 50.5701 31.1083 52.8333 31.1083 55.0815C31.1083 55.2614 31.1241 55.3663 31.3611 55.3663C33.6514 55.3513 35.9418 55.3513 38.2321 55.3513C38.3901 55.3513 38.5638 55.3663 38.7218 55.3663C44.8978 55.3663 51.0739 55.3663 57.2499 55.3663C58.6242 55.3663 59.9984 55.3663 61.3726 55.3663C61.6411 55.3663 61.7201 55.2914 61.7043 55.0516C61.6885 54.437 61.6727 53.8225 61.7043 53.208C61.7201 52.8633 61.6253 52.7734 61.262 52.7734C54.8806 52.7883 48.515 52.7883 42.1336 52.7883C41.9757 52.7883 41.8335 52.8033 41.6755 52.8183ZM49.3996 41.772C49.4943 41.6971 49.5891 41.6222 49.6839 41.5472C53.2063 37.995 54.849 33.7534 54.7069 28.8972C54.6911 28.3426 54.6911 27.7881 54.5015 27.2485C54.5015 27.1286 54.5015 27.0087 54.4857 26.8888C54.0434 24.4157 53.1431 22.0926 51.6109 20.0392C47.6621 14.7633 42.2442 12.2603 35.4363 12.5601C32.5299 12.695 29.8131 13.5343 27.3332 14.9582C20.6833 18.7802 17.3978 26.0195 19.009 33.2438C20.6359 40.573 27.2068 46.1036 35.073 46.7181C38.9113 47.0179 42.4969 46.2685 45.8298 44.4249C47.1408 43.7055 48.3728 42.8512 49.3996 41.772ZM56.5391 33.004C56.5233 33.0489 56.476 33.0789 56.476 33.1239C55.9231 36.0316 54.7069 38.6695 52.8588 41.0376C52.764 41.1575 52.6219 41.2774 52.5745 41.4573C53.9329 41.4573 55.2755 41.4573 56.6023 41.4573C58.324 41.4573 60.0458 41.4573 61.7833 41.4723C62.1308 41.4723 62.2413 41.4123 62.2413 41.0526C62.2255 28.1478 62.2255 15.258 62.2413 2.35314C62.2413 2.0234 62.1624 1.94846 61.8149 1.94846C49.6839 1.96345 37.5529 1.96345 25.4219 1.94846C25.0744 1.94846 24.9955 2.03839 24.9955 2.36813C25.0113 6.11517 24.9955 9.86222 25.0113 13.6242C25.0113 13.7292 24.9797 13.8491 25.0429 13.954C25.0744 13.954 25.106 13.954 25.1218 13.939C25.2008 13.894 25.264 13.8491 25.343 13.8041C28.7074 11.6458 32.4352 10.5517 36.4788 10.5067C40.096 10.4767 43.5078 11.3011 46.6511 13.0097C46.9039 13.1446 47.1724 13.2046 47.4725 13.2046C50.5368 13.2046 53.6012 13.2046 56.6655 13.2046C56.8393 13.2046 57.013 13.2196 57.1868 13.2346C57.5501 13.2795 57.8028 13.4744 57.9607 13.7891C58.3082 14.4636 57.787 15.183 56.934 15.183C54.8648 15.183 52.7798 15.183 50.7106 15.183C50.4737 15.183 50.2525 15.183 50.0314 15.183C49.9998 15.2729 50.0472 15.3029 50.0788 15.3329C51.5951 16.6219 52.8904 18.0907 53.9487 19.7544C54.0434 19.9193 54.1856 19.9343 54.3594 19.9343C55.2123 19.9343 56.0653 19.9343 56.9182 19.9343C57.1078 19.9343 57.2973 19.9343 57.4711 20.0092C57.9134 20.2041 58.1503 20.6237 58.0713 21.0884C57.9923 21.553 57.5974 21.8677 57.0288 21.8977C56.5549 21.9127 56.0811 21.8977 55.6072 21.9127C55.1491 21.9127 55.1491 21.9127 55.3229 22.3024C56.318 24.5806 56.8077 26.9487 56.8551 29.3918C56.8393 30.6208 56.6813 31.8199 56.5391 33.004ZM63.7577 54.1523C64.8476 53.208 65.8585 52.3387 66.9484 51.4244C65.8901 51.3345 64.9108 51.2446 63.9315 51.1696C63.7735 51.1546 63.7577 51.2595 63.7577 51.3795C63.7577 52.2638 63.7577 53.1481 63.7577 54.1523Z" fill="white"/>
  <path d="M43.6184 8.51328C39.2114 8.51328 34.7886 8.51328 30.3817 8.51328C29.7973 8.51328 29.4024 8.28846 29.2444 7.86879C29.0233 7.26926 29.4182 6.63976 30.0974 6.54983C30.1921 6.53484 30.3027 6.53484 30.3975 6.53484C39.2114 6.53484 48.0253 6.53484 56.855 6.53484C57.5658 6.53484 58.0239 6.87957 58.0713 7.44912C58.1186 8.03366 57.6922 8.49829 57.0761 8.51328C56.6497 8.52827 56.2232 8.51328 55.7967 8.51328C51.7215 8.51328 47.662 8.51328 43.6184 8.51328Z" fill="white"/>
  <path d="M48.1708 29.3674C48.1339 29.2888 47.2419 27.4179 45.2589 25.543C42.6166 23.0447 39.2792 21.7244 35.6059 21.7244C31.9326 21.7244 28.5952 23.0447 25.9529 25.543C23.9699 27.4179 23.0737 29.2918 23.041 29.3674C22.9931 29.4693 22.9684 29.5796 22.9684 29.691C22.9684 29.8025 22.9931 29.9128 23.041 30.0147C23.0779 30.0933 23.9699 31.9632 25.9529 33.8382C28.5952 36.3354 31.9326 37.6557 35.6059 37.6557C39.2792 37.6557 42.6166 36.3354 45.2589 33.8382C47.2419 31.9632 48.1339 30.0933 48.1708 30.0147C48.2187 29.9128 48.2435 29.8025 48.2435 29.691C48.2435 29.5796 48.2187 29.4693 48.1708 29.3674ZM35.6059 36.0626C32.3644 36.0626 29.5325 34.9484 27.1883 32.7518C26.2264 31.8474 25.408 30.8161 24.7587 29.6901C25.4079 28.5639 26.2262 27.5325 27.1883 26.6283C29.5325 24.4317 32.3644 23.3176 35.6059 23.3176C38.8474 23.3176 41.6793 24.4317 44.0236 26.6283C44.9873 27.5323 45.8075 28.5636 46.4584 29.6901C45.6991 31.0303 42.3912 36.0626 35.6059 36.0626ZM35.6059 24.9107C34.6061 24.9107 33.6288 25.191 32.7975 25.7162C31.9662 26.2413 31.3183 26.9878 30.9357 27.8611C30.5531 28.7344 30.453 29.6954 30.648 30.6225C30.8431 31.5496 31.3245 32.4012 32.0315 33.0696C32.7384 33.738 33.6392 34.1932 34.6197 34.3776C35.6003 34.562 36.6167 34.4674 37.5404 34.1056C38.4641 33.7439 39.2536 33.1313 39.809 32.3453C40.3645 31.5594 40.6609 30.6353 40.6609 29.6901C40.6595 28.4229 40.1265 27.208 39.1788 26.312C38.2311 25.416 36.9462 24.912 35.6059 24.9107ZM35.6059 32.8763C34.9394 32.8763 34.2878 32.6894 33.7336 32.3393C33.1794 31.9892 32.7475 31.4916 32.4924 30.9094C32.2374 30.3272 32.1706 29.6865 32.3007 29.0684C32.4307 28.4504 32.7516 27.8826 33.223 27.437C33.6943 26.9914 34.2947 26.688 34.9485 26.565C35.6022 26.4421 36.2798 26.5052 36.8956 26.7463C37.5114 26.9875 38.0377 27.3959 38.408 27.9199C38.7783 28.4438 38.9759 29.0599 38.9759 29.6901C38.9759 30.5351 38.6209 31.3455 37.9889 31.9431C37.3569 32.5406 36.4997 32.8763 35.6059 32.8763Z" fill="white"/>
  <path d="M217.496 56.1314H220.024C220.535 56.1314 220.934 56.2829 221.222 56.5859C221.515 56.8889 221.662 57.294 221.662 57.8011C221.662 58.0423 221.63 58.2463 221.565 58.4133C221.501 58.5803 221.419 58.7194 221.319 58.8307C221.219 58.9358 221.11 59.0162 220.993 59.0719C220.875 59.1214 220.767 59.1554 220.667 59.1739V59.2296C220.779 59.2358 220.902 59.2667 221.037 59.3223C221.178 59.378 221.31 59.4677 221.433 59.5913C221.557 59.7088 221.659 59.8634 221.742 60.0551C221.83 60.2407 221.874 60.4664 221.874 60.7323C221.874 60.9982 221.833 61.2456 221.75 61.4744C221.674 61.7032 221.565 61.9011 221.424 62.068C221.284 62.235 221.116 62.368 220.922 62.4669C220.729 62.5597 220.517 62.606 220.288 62.606H217.496V56.1314ZM218.236 61.9196H220.059C220.376 61.9196 220.626 61.8361 220.808 61.6692C220.99 61.496 221.081 61.2456 221.081 60.9178V60.6024C221.081 60.2747 220.99 60.0273 220.808 59.8604C220.626 59.6872 220.376 59.6006 220.059 59.6006H218.236V61.9196ZM218.236 58.9328H219.936C220.23 58.9328 220.459 58.8555 220.623 58.7009C220.787 58.5463 220.87 58.3236 220.87 58.033V57.7176C220.87 57.427 220.787 57.2043 220.623 57.0497C220.459 56.8951 220.23 56.8178 219.936 56.8178H218.236V58.9328Z" fill="white"/>
  <path d="M225.895 57.8196H226.591L224.556 63.7192C224.503 63.8614 224.45 63.9789 224.398 64.0716C224.345 64.1706 224.28 64.2479 224.204 64.3035C224.128 64.3592 224.031 64.3994 223.913 64.4241C223.802 64.4489 223.664 64.4612 223.499 64.4612H223.138V63.8119H223.852L224.195 62.7916L222.495 57.8196H223.2L224.292 61.0755L224.503 61.8547H224.547L224.794 61.0755L225.895 57.8196Z" fill="white"/>
  <path d="M232.874 62.606C232.61 62.606 232.419 62.5318 232.302 62.3834C232.19 62.235 232.119 62.0495 232.09 61.8269H232.046C231.946 62.1237 231.782 62.3463 231.553 62.4947C231.324 62.6431 231.051 62.7174 230.734 62.7174C230.252 62.7174 229.876 62.5875 229.606 62.3278C229.342 62.068 229.21 61.7155 229.21 61.2703C229.21 60.8189 229.366 60.4726 229.677 60.2314C229.994 59.9902 230.484 59.8696 231.148 59.8696H232.046V59.3966C232.046 59.0564 231.958 58.7967 231.782 58.6174C231.606 58.438 231.336 58.3484 230.972 58.3484C230.696 58.3484 230.464 58.4133 230.276 58.5432C230.094 58.673 229.941 58.8462 229.818 59.0626L229.395 58.6452C229.518 58.3855 229.715 58.1659 229.985 57.9866C230.255 57.8011 230.596 57.7083 231.007 57.7083C231.559 57.7083 231.987 57.8506 232.293 58.135C232.598 58.4195 232.751 58.8153 232.751 59.3223V61.9567H233.27V62.606H232.874ZM230.848 62.0866C231.024 62.0866 231.186 62.0649 231.333 62.0217C231.479 61.9784 231.606 61.9165 231.711 61.8361C231.817 61.7557 231.899 61.663 231.958 61.5579C232.017 61.4527 232.046 61.3383 232.046 61.2146V60.4262H231.112C230.707 60.4262 230.411 60.488 230.223 60.6117C230.041 60.7354 229.95 60.9147 229.95 61.1497V61.3445C229.95 61.5795 230.029 61.7619 230.188 61.8918C230.352 62.0217 230.572 62.0866 230.848 62.0866Z" fill="white"/>
  <path d="M234.276 62.606V57.8196H234.981V58.5988H235.016C235.069 58.4751 235.128 58.3607 235.192 58.2556C235.263 58.1443 235.345 58.0484 235.439 57.9681C235.539 57.8877 235.653 57.8258 235.782 57.7825C235.911 57.7331 236.064 57.7083 236.24 57.7083C236.54 57.7083 236.816 57.7856 237.068 57.9402C237.321 58.0886 237.509 58.336 237.632 58.6823H237.65C237.732 58.4226 237.884 58.1969 238.108 58.0052C238.337 57.8073 238.645 57.7083 239.032 57.7083C239.496 57.7083 239.857 57.8691 240.116 58.1907C240.38 58.5061 240.512 58.9544 240.512 59.5357V62.606H239.808V59.6656C239.808 59.2389 239.728 58.9173 239.57 58.7009C239.411 58.4844 239.159 58.3762 238.812 58.3762C238.671 58.3762 238.536 58.3947 238.407 58.4319C238.284 58.469 238.172 58.5246 238.072 58.5988C237.973 58.673 237.893 58.7689 237.835 58.8864C237.776 58.9977 237.746 59.1306 237.746 59.2852V62.606H237.042V59.6656C237.042 59.2389 236.963 58.9173 236.804 58.7009C236.645 58.4844 236.399 58.3762 236.064 58.3762C235.923 58.3762 235.788 58.3947 235.659 58.4319C235.53 58.469 235.415 58.5246 235.315 58.5988C235.216 58.673 235.133 58.7689 235.069 58.8864C235.01 58.9977 234.981 59.1306 234.981 59.2852V62.606H234.276Z" fill="white"/>
  <path d="M245.269 62.606C245.005 62.606 244.814 62.5318 244.696 62.3834C244.585 62.235 244.514 62.0495 244.485 61.8269H244.441C244.341 62.1237 244.177 62.3463 243.948 62.4947C243.719 62.6431 243.446 62.7174 243.129 62.7174C242.647 62.7174 242.271 62.5875 242.001 62.3278C241.737 62.068 241.605 61.7155 241.605 61.2703C241.605 60.8189 241.76 60.4726 242.072 60.2314C242.389 59.9902 242.879 59.8696 243.543 59.8696H244.441V59.3966C244.441 59.0564 244.353 58.7967 244.177 58.6174C244.001 58.438 243.73 58.3484 243.366 58.3484C243.09 58.3484 242.858 58.4133 242.671 58.5432C242.488 58.673 242.336 58.8462 242.213 59.0626L241.79 58.6452C241.913 58.3855 242.11 58.1659 242.38 57.9866C242.65 57.8011 242.991 57.7083 243.402 57.7083C243.954 57.7083 244.382 57.8506 244.688 58.135C244.993 58.4195 245.146 58.8153 245.146 59.3223V61.9567H245.665V62.606H245.269ZM243.243 62.0866C243.419 62.0866 243.581 62.0649 243.727 62.0217C243.874 61.9784 244.001 61.9165 244.106 61.8361C244.212 61.7557 244.294 61.663 244.353 61.5579C244.412 61.4527 244.441 61.3383 244.441 61.2146V60.4262H243.507C243.102 60.4262 242.806 60.488 242.618 60.6117C242.436 60.7354 242.345 60.9147 242.345 61.1497V61.3445C242.345 61.5795 242.424 61.7619 242.582 61.8918C242.747 62.0217 242.967 62.0866 243.243 62.0866Z" fill="white"/>
  <path d="M246.213 62.606V61.9845L248.794 58.469H246.292V57.8196H249.648V58.3762L247.014 61.9567H249.719V62.606H246.213Z" fill="white"/>
  <path d="M251.109 56.6972C250.956 56.6972 250.845 56.6601 250.774 56.5859C250.71 56.5055 250.677 56.4035 250.677 56.2798V56.1592C250.677 56.0356 250.71 55.9366 250.774 55.8624C250.845 55.782 250.956 55.7418 251.109 55.7418C251.262 55.7418 251.37 55.782 251.435 55.8624C251.505 55.9366 251.541 56.0356 251.541 56.1592V56.2798C251.541 56.4035 251.505 56.5055 251.435 56.5859C251.37 56.6601 251.262 56.6972 251.109 56.6972ZM250.757 57.8196H251.461V62.606H250.757V57.8196Z" fill="white"/>
  <path d="M253.963 62.606C253.716 62.606 253.528 62.5349 253.399 62.3927C253.276 62.2443 253.214 62.0526 253.214 61.8176V58.469H252.465V57.8196H252.888C253.041 57.8196 253.144 57.7887 253.196 57.7269C253.255 57.6589 253.285 57.5445 253.285 57.3837V56.4932H253.919V57.8196H254.914V58.469H253.919V61.9567H254.844V62.606H253.963Z" fill="white"/>
</svg>