<svg width="496" height="119" viewBox="0 0 496 119" fill="none" xmlns="http://www.w3.org/2000/svg">
<path d="M177.711 27.5568H187.851V84.8917H206.785V93.9208H177.711V27.5568Z" fill="url(#paint0_linear_1_356)"/>
<path d="M216.533 52.4771H226.583V93.9208H216.533V52.4771ZM221.469 44.7121C219.614 44.7121 218.059 44.08 216.803 42.816C215.546 41.5519 214.918 39.9868 214.918 38.1208C214.918 36.4354 215.546 34.9907 216.803 33.7869C218.059 32.583 219.614 31.981 221.469 31.981C223.263 31.981 224.789 32.583 226.045 33.7869C227.301 34.9907 227.929 36.4354 227.929 38.1208C227.929 39.9868 227.301 41.5519 226.045 42.816C224.849 44.08 223.323 44.7121 221.469 44.7121Z" fill="url(#paint1_linear_1_356)"/>
<path d="M264.409 94.8237C261.059 94.8237 258.038 94.0111 255.346 92.3858C252.713 90.7004 250.889 88.7742 249.872 86.6072L249.692 93.9208H240.36V27.5568H249.872V53.1092L249.423 60.1519C250.44 57.7441 252.414 55.6975 255.346 54.0121C258.337 52.2664 261.567 51.3936 265.037 51.3936C269.105 51.3936 272.634 52.3266 275.625 54.1927C278.676 55.9985 281.009 58.5567 282.624 61.8674C284.24 65.1179 285.047 68.9101 285.047 73.2441C285.047 77.6383 284.09 81.4606 282.176 84.7111C280.321 87.9616 277.809 90.4596 274.638 92.2052C271.528 93.9509 268.118 94.8237 264.409 94.8237ZM262.794 86.6975C266.682 86.6975 269.673 85.4635 271.767 82.9955C273.861 80.4674 274.907 77.2169 274.907 73.2441C274.907 69.2111 273.861 65.9606 271.767 63.4926C269.733 60.9645 266.742 59.7004 262.794 59.7004C259.384 59.7004 256.512 60.9043 254.179 63.3121C251.846 65.6596 250.68 68.7596 250.68 72.6121V73.2441C250.68 75.8324 251.218 78.1499 252.295 80.1965C253.431 82.2431 254.897 83.8383 256.692 84.9819C258.546 86.1256 260.58 86.6975 262.794 86.6975Z" fill="url(#paint2_linear_1_356)"/>
<path d="M314.855 94.8237C309.95 94.8237 305.852 93.8606 302.562 91.9344C299.272 89.948 296.849 87.3295 295.294 84.079C293.738 80.7684 292.961 77.1567 292.961 73.2441C292.961 68.8499 293.858 64.9975 295.653 61.6868C297.507 58.3761 300.05 55.848 303.28 54.1024C306.51 52.2965 310.159 51.3936 314.227 51.3936C320.568 51.3936 325.265 53.1694 328.315 56.7208C331.426 60.2121 332.982 65.148 332.982 71.5286C332.982 73.1538 332.892 74.8392 332.712 76.5849H303.1C303.758 80.2567 305.045 82.9053 306.959 84.5305C308.933 86.1557 311.655 86.9683 315.125 86.9683C317.996 86.9683 320.359 86.7276 322.214 86.246C324.068 85.7645 325.773 85.1023 327.328 84.2596L330.29 91.212C328.794 92.1751 326.76 93.0179 324.188 93.7402C321.615 94.4625 318.505 94.8237 314.855 94.8237ZM323.56 69.813C323.619 66.081 322.812 63.4625 321.137 61.9577C319.462 60.3926 317.069 59.6101 313.958 59.6101C307.677 59.6101 304.058 63.0111 303.1 69.813H323.56Z" fill="url(#paint3_linear_1_356)"/>
<path d="M342.873 52.4771H352.564V60.6033C353.521 57.8344 355.076 55.6072 357.23 53.9218C359.383 52.2363 361.836 51.3936 364.588 51.3936C366.502 51.3936 367.818 51.5742 368.536 51.9354L367.19 61.7771C366.652 61.416 365.485 61.2354 363.691 61.2354C360.879 61.2354 358.307 62.1383 355.974 63.9441C353.7 65.7499 352.564 68.6392 352.564 72.6121V93.9208H342.873V52.4771Z" fill="url(#paint4_linear_1_356)"/>
<path d="M389.567 94.8237C386.696 94.8237 383.705 94.4625 380.594 93.7402C377.543 92.9577 375.36 92.0547 374.044 91.0314L377.274 83.3567C380.863 85.8849 384.961 87.1489 389.567 87.1489C394.174 87.1489 396.477 85.7946 396.477 83.0858C396.477 81.882 395.998 80.9489 395.041 80.2868C394.084 79.6247 392.379 78.8421 389.926 77.9392L386.516 76.6752C382.927 75.2305 380.086 73.515 377.992 71.5286C375.898 69.482 374.851 66.8033 374.851 63.4926C374.851 59.7004 376.317 56.7509 379.248 54.6441C382.239 52.4771 386.217 51.3936 391.183 51.3936C393.635 51.3936 396.028 51.6645 398.361 52.2063C400.754 52.748 402.579 53.4402 403.835 54.2829L400.335 62.048C399.558 61.2655 398.301 60.6033 396.567 60.0616C394.891 59.4596 393.007 59.1587 390.913 59.1587C386.666 59.1587 384.542 60.4528 384.542 63.0412C384.542 64.4859 385.111 65.5994 386.247 66.382C387.384 67.1043 389.238 67.9169 391.811 68.8198C392.05 68.88 392.977 69.2111 394.592 69.813C398.421 71.3179 401.263 73.0334 403.117 74.9596C404.971 76.8858 405.899 79.3538 405.899 82.3635C405.899 86.4567 404.343 89.5567 401.233 91.6635C398.182 93.7703 394.293 94.8237 389.567 94.8237Z" fill="url(#paint5_linear_1_356)"/>
<path d="M416.68 52.4771H426.73V93.9208H416.68V52.4771ZM421.615 44.7121C419.761 44.7121 418.205 44.08 416.949 42.816C415.693 41.5519 415.065 39.9868 415.065 38.1208C415.065 36.4354 415.693 34.9907 416.949 33.7869C418.205 32.583 419.761 31.981 421.615 31.981C423.41 31.981 424.935 32.583 426.192 33.7869C427.448 34.9907 428.076 36.4354 428.076 38.1208C428.076 39.9868 427.448 41.5519 426.192 42.816C424.995 44.08 423.47 44.7121 421.615 44.7121Z" fill="url(#paint6_linear_1_356)"/>
<path d="M444.007 60.2422H437.366V52.4771H444.007V43.5383C444.007 38.1208 445.293 33.9373 447.865 30.9878C450.497 27.9781 454.326 26.4733 459.351 26.4733C461.385 26.4733 463.688 27.0451 466.26 28.1888L464.376 37.3985C463.957 36.9169 463.299 36.4655 462.402 36.0441C461.564 35.5626 460.637 35.3218 459.62 35.3218C455.612 35.3218 453.578 37.9402 453.518 43.1771V52.4771H463.209V60.2422H453.518V93.9208H444.007V60.2422Z" fill="url(#paint7_linear_1_356)"/>
<path d="M476.248 60.4227H468.98V52.4771H476.248V35.5927L486.029 33.4257V52.4771H495.541V60.4227H486.029V93.9208H476.248V60.4227Z" fill="url(#paint8_linear_1_356)"/>
<path d="M84.5895 0C97.0001 0 109.441 0 121.852 0C122.097 0 122.342 0 122.587 0C123.997 0.0552205 124.763 0.773087 124.794 2.04316C124.794 3.78261 124.794 5.49444 124.794 7.23389C124.794 11.0717 124.794 14.9372 124.794 18.775C124.794 19.272 124.947 19.3824 125.468 19.3824C128.318 19.3548 131.137 19.3824 133.987 19.3824C135.979 19.3824 136.653 19.9898 136.653 21.7569C136.653 45.2256 136.653 68.7219 136.653 92.1907C136.653 92.4392 136.653 92.7153 136.683 92.9638C136.775 93.654 136.5 94.2338 135.948 94.7308C131.719 98.1821 127.46 101.661 123.231 105.112C122.771 105.499 122.22 105.664 121.576 105.664C100.647 105.664 79.6865 105.664 58.757 105.664C57.0716 105.664 56.3362 104.974 56.3362 103.456C56.3362 98.2649 56.3362 93.1018 56.3362 87.9111C56.3362 87.3865 56.1523 87.1656 55.6314 86.9447C51.8929 85.509 48.4608 83.5763 45.4271 81.1189C45.09 80.8428 44.9062 80.8152 44.5691 81.1189C41.7192 83.7143 38.8388 86.2821 35.9889 88.8774C35.7131 89.1259 35.6518 89.3192 35.8357 89.6505C37.3679 92.5772 36.7856 95.6419 34.2729 97.906C27.3781 104.146 20.5139 110.331 13.6498 116.515C11.4128 118.531 8.68556 119.221 5.65185 118.393C2.64879 117.564 0.779535 115.687 0.166666 112.898C-0.32363 110.662 0.258596 108.564 2.03592 106.879C4.11968 104.891 6.29536 102.986 8.44041 101.054C13.1595 96.774 17.9705 92.522 22.659 88.1872C25.2943 85.7299 29.1248 85.012 32.3423 86.5306C32.5875 86.641 32.7713 86.641 32.9552 86.4477C35.897 83.7971 38.8081 81.1466 41.7499 78.5236C42.1483 78.1646 41.8112 77.999 41.5967 77.7781C38.5323 74.5477 36.1421 70.9584 34.4874 66.9549C29.0635 53.7848 32.6794 39.2066 43.8336 29.3773C44.2933 28.9632 44.4465 28.5766 44.4465 28.0244C44.4159 19.4652 44.4465 10.8784 44.4465 2.31926C44.4465 0.635036 45.1513 0 47.0512 0C59.5538 0 72.0869 0 84.5895 0ZM16.4996 98.9552C12.6999 102.351 8.90006 105.775 5.13091 109.171C4.11968 110.11 3.84388 111.269 4.24225 112.512C5.03898 115.052 8.53234 115.88 10.6467 114.03C13.5579 111.463 16.4077 108.84 19.2882 106.244C20.1156 105.499 20.943 104.726 21.7703 103.953C25.0798 100.998 28.42 98.0716 31.6375 95.0621C33.1084 93.6816 32.8633 91.5832 31.2698 90.2579C29.8602 89.0431 27.5313 89.0431 26.0604 90.3408C22.8428 93.1846 19.6866 96.0837 16.4996 98.9552ZM80.851 97.2986C79.5333 97.2986 78.185 97.2709 76.8673 97.2709C74.5384 97.2709 72.2095 97.2709 69.8806 97.2709C68.6855 97.2709 67.8888 96.6359 67.7356 95.6972C67.5823 94.8136 68.1646 94.0129 69.1145 93.7092C69.4822 93.5988 69.8193 93.6264 70.187 93.6264C75.1207 93.6264 80.0236 93.5988 84.9572 93.5988C85.233 93.5988 85.5394 93.6264 85.8152 93.6264C96.663 93.6264 107.511 93.6264 118.359 93.6264C119.676 93.6264 119.676 93.6264 119.676 92.4391C119.707 91.1415 120.534 90.396 121.975 90.4788C123.997 90.6169 126.019 90.7825 128.073 90.9482C129.39 91.0586 130.739 91.1691 132.056 91.2795C132.332 91.3071 132.608 91.3347 132.608 90.9482C132.577 89.6229 132.73 88.2976 132.577 86.9447C132.7 86.641 132.638 86.3373 132.638 86.0336C132.638 65.3811 132.638 44.7286 132.638 24.0485C132.638 23.8829 132.638 23.7448 132.638 23.5792C132.7 23.1374 132.485 23.027 131.995 23.027C129.942 23.0546 127.858 23.027 125.805 23.027C124.641 23.027 124.794 22.8889 124.794 23.9105C124.794 41.8572 124.794 59.8038 124.794 77.7505C124.794 79.4071 124.058 80.0698 122.25 80.0698C114.957 80.0698 107.695 80.0974 100.402 80.0421C98.8694 80.0421 97.6436 80.2354 96.6017 81.2846C95.8969 82.0025 94.9776 82.5271 93.997 83.2449C94.4567 83.2449 94.7018 83.2449 94.9776 83.2449C103.65 83.2449 112.291 83.2449 120.963 83.2449C121.576 83.2449 122.189 83.2449 122.741 83.5487C123.936 84.1837 124.242 85.9784 122.434 86.8619C121.975 86.8895 121.515 86.9171 121.055 86.9171C110.851 86.9171 100.616 86.9171 90.4117 86.9171C90.1053 86.9171 89.7989 86.9447 89.4618 86.9447C88.0522 86.8343 86.7039 86.8895 85.3556 87.4141C80.8203 89.0983 76.0706 89.8438 71.1676 89.8438C67.7049 89.8438 64.3035 89.4849 60.9634 88.6289C60.5037 88.5185 60.3198 88.5185 60.3505 89.0155C60.3811 93.157 60.3505 97.3262 60.3505 101.468C60.3505 101.799 60.3811 101.992 60.8408 101.992C65.2841 101.965 69.7274 101.965 74.1707 101.965C74.4771 101.965 74.8142 101.992 75.1206 101.992C87.1022 101.992 99.0839 101.992 111.065 101.992C113.731 101.992 116.397 101.992 119.063 101.992C119.584 101.992 119.738 101.854 119.707 101.412C119.676 100.28 119.646 99.1484 119.707 98.0164C119.738 97.3814 119.554 97.2157 118.849 97.2157C106.469 97.2433 94.1196 97.2433 81.7396 97.2433C81.4332 97.2433 81.1574 97.271 80.851 97.2986ZM95.8356 76.9498C96.0195 76.8118 96.2034 76.6737 96.3872 76.5356C103.221 69.992 106.408 62.1783 106.132 53.2326C106.101 52.211 106.101 51.1894 105.733 50.1955C105.733 49.9746 105.733 49.7537 105.703 49.5328C104.845 44.9771 103.098 40.6975 100.126 36.9149C92.4649 27.1961 81.9541 22.5852 68.7468 23.1374C63.1084 23.3859 57.8377 24.9321 53.0267 27.555C40.1258 34.5957 33.7519 47.9314 36.8776 61.2396C40.0338 74.741 52.7815 84.9292 68.042 86.0612C75.4884 86.6134 82.4444 85.2329 88.9102 81.8368C91.4536 80.5115 93.8438 78.9377 95.8356 76.9498ZM109.686 60.7978C109.656 60.8806 109.564 60.9358 109.564 61.0187C108.491 66.3751 106.132 71.2345 102.547 75.5969C102.363 75.8178 102.087 76.0387 101.995 76.37C104.63 76.37 107.235 76.37 109.809 76.37C113.149 76.37 116.489 76.37 119.86 76.3976C120.534 76.3976 120.749 76.2871 120.749 75.6245C120.718 51.8521 120.718 28.1072 120.749 4.33481C120.749 3.72739 120.596 3.58933 119.921 3.58933C96.3872 3.61694 72.853 3.61694 49.3188 3.58933C48.6447 3.58933 48.4915 3.755 48.4915 4.36242C48.5221 11.265 48.4915 18.1676 48.5221 25.0977C48.5221 25.291 48.4608 25.5119 48.5834 25.7052C48.6447 25.7052 48.706 25.7052 48.7366 25.6775C48.8898 25.5947 49.0124 25.5119 49.1656 25.429C55.6927 21.4532 62.9245 19.4376 70.7693 19.3548C77.7866 19.2996 84.4056 20.8181 90.5037 23.9657C90.994 24.2142 91.5149 24.3246 92.0971 24.3246C98.042 24.3246 103.987 24.3246 109.932 24.3246C110.269 24.3246 110.606 24.3523 110.943 24.3799C111.648 24.4627 112.138 24.8216 112.444 25.4014C113.119 26.6439 112.107 27.9692 110.453 27.9692C106.438 27.9692 102.393 27.9692 98.3791 27.9692C97.9194 27.9692 97.4904 27.9692 97.0614 27.9692C97.0001 28.1349 97.092 28.1901 97.1533 28.2453C100.095 30.6198 102.608 33.3256 104.661 36.3903C104.845 36.694 105.121 36.7216 105.458 36.7216C107.112 36.7216 108.767 36.7216 110.422 36.7216C110.79 36.7216 111.157 36.7216 111.494 36.8597C112.352 37.2186 112.812 37.9917 112.659 38.8476C112.506 39.7036 111.74 40.2834 110.636 40.3386C109.717 40.3662 108.798 40.3386 107.879 40.3662C106.99 40.3662 106.99 40.3662 107.327 41.0841C109.257 45.2808 110.207 49.6432 110.299 54.1437C110.269 56.4078 109.962 58.6166 109.686 60.7978ZM123.691 99.7559C125.805 98.0164 127.766 96.415 129.881 94.7308C127.827 94.5651 125.928 94.3995 124.028 94.2614C123.721 94.2338 123.691 94.4271 123.691 94.648C123.691 96.277 123.691 97.906 123.691 99.7559Z" fill="white"/>
<path d="M84.62 15.6826C76.0705 15.6826 67.4903 15.6826 58.9408 15.6826C57.807 15.6826 57.0409 15.2685 56.7345 14.4954C56.3054 13.391 57.0715 12.2313 58.3892 12.0657C58.5731 12.0381 58.7876 12.0381 58.9714 12.0381C76.0705 12.0381 93.1696 12.0381 110.299 12.0381C111.678 12.0381 112.567 12.6731 112.659 13.7223C112.751 14.7991 111.923 15.655 110.728 15.6826C109.901 15.7102 109.074 15.6826 108.246 15.6826C100.34 15.6826 92.4648 15.6826 84.62 15.6826Z" fill="white"/>
<path d="M93.4518 54.0988C93.3803 53.9539 91.6498 50.5074 87.8027 47.0536C82.6766 42.4515 76.2021 40.0194 69.0758 40.0194C61.9496 40.0194 55.475 42.4515 50.3489 47.0536C46.5018 50.5074 44.7632 53.9594 44.6998 54.0988C44.6069 54.2865 44.5589 54.4896 44.5589 54.695C44.5589 54.9003 44.6069 55.1034 44.6998 55.2911C44.7713 55.436 46.5018 58.8807 50.3489 62.3345C55.475 66.9347 61.9496 69.3669 69.0758 69.3669C76.2021 69.3669 82.6766 66.9347 87.8027 62.3345C91.6498 58.8807 93.3803 55.436 93.4518 55.2911C93.5448 55.1034 93.5928 54.9003 93.5928 54.695C93.5928 54.4896 93.5448 54.2865 93.4518 54.0988ZM69.0758 66.4321C62.7872 66.4321 57.2934 64.3797 52.7455 60.3334C50.8794 58.6673 49.2918 56.7676 48.0321 54.6931C49.2915 52.6185 50.8791 50.7187 52.7455 49.0529C57.2934 45.0066 62.7872 42.9541 69.0758 42.9541C75.3644 42.9541 80.8583 45.0066 85.4062 49.0529C87.2759 50.7183 88.8669 52.6181 90.1298 54.6931C88.6567 57.162 82.2394 66.4321 69.0758 66.4321ZM69.0758 45.8889C67.1362 45.8889 65.2402 46.4052 63.6275 47.3727C62.0148 48.3401 60.7578 49.7151 60.0155 51.3239C59.2733 52.9327 59.0791 54.7029 59.4575 56.4108C59.8359 58.1186 60.7699 59.6874 62.1414 60.9187C63.5129 62.15 65.2603 62.9885 67.1626 63.3282C69.0649 63.6679 71.0368 63.4936 72.8287 62.8272C74.6207 62.1608 76.1523 61.0324 77.2299 59.5845C78.3075 58.1367 78.8826 56.4345 78.8826 54.6931C78.8799 52.3588 77.8458 50.1209 76.0073 48.4703C74.1687 46.8197 71.6759 45.8913 69.0758 45.8889ZM69.0758 60.5626C67.7828 60.5626 66.5187 60.2184 65.4436 59.5735C64.3684 58.9285 63.5305 58.0118 63.0356 56.9393C62.5408 55.8668 62.4113 54.6866 62.6636 53.548C62.9159 52.4095 63.5385 51.3636 64.4529 50.5428C65.3672 49.7219 66.5321 49.1629 67.8004 48.9364C69.0686 48.7099 70.3831 48.8262 71.5778 49.2704C72.7724 49.7147 73.7935 50.467 74.5119 51.4322C75.2303 52.3974 75.6137 53.5323 75.6137 54.6931C75.6137 56.2498 74.9249 57.7428 73.6988 58.8435C72.4727 59.9443 70.8098 60.5626 69.0758 60.5626Z" fill="white"/>
<path d="M421.945 103.402H426.849C427.84 103.402 428.614 103.681 429.173 104.239C429.742 104.797 430.027 105.544 430.027 106.478C430.027 106.922 429.964 107.298 429.839 107.605C429.714 107.913 429.554 108.169 429.361 108.374C429.167 108.568 428.956 108.716 428.728 108.819C428.501 108.91 428.29 108.972 428.096 109.007V109.109C428.313 109.121 428.552 109.177 428.814 109.28C429.087 109.383 429.344 109.548 429.583 109.776C429.822 109.992 430.021 110.277 430.181 110.63C430.352 110.972 430.437 111.387 430.437 111.877C430.437 112.367 430.357 112.823 430.198 113.244C430.05 113.666 429.839 114.03 429.566 114.338C429.292 114.646 428.968 114.89 428.592 115.073C428.216 115.244 427.806 115.329 427.361 115.329H421.945V103.402ZM423.38 114.065H426.917C427.532 114.065 428.016 113.911 428.37 113.603C428.723 113.284 428.899 112.823 428.899 112.219V111.638C428.899 111.034 428.723 110.579 428.37 110.271C428.016 109.952 427.532 109.793 426.917 109.793H423.38V114.065ZM423.38 108.562H426.678C427.247 108.562 427.692 108.42 428.011 108.135C428.33 107.85 428.489 107.44 428.489 106.905V106.324C428.489 105.788 428.33 105.378 428.011 105.094C427.692 104.809 427.247 104.666 426.678 104.666H423.38V108.562Z" fill="white"/>
<path d="M438.239 106.512H439.588L435.641 117.38C435.539 117.642 435.436 117.858 435.334 118.029C435.231 118.211 435.106 118.354 434.958 118.456C434.81 118.559 434.622 118.633 434.394 118.678C434.177 118.724 433.91 118.747 433.591 118.747H432.89V117.55H434.274L434.941 115.671L431.643 106.512H433.01L435.129 112.51L435.539 113.945H435.624L436.103 112.51L438.239 106.512Z" fill="white"/>
<path d="M451.778 115.329C451.265 115.329 450.895 115.192 450.667 114.919C450.451 114.646 450.314 114.304 450.257 113.894H450.172C449.978 114.44 449.659 114.851 449.215 115.124C448.771 115.397 448.241 115.534 447.626 115.534C446.692 115.534 445.962 115.295 445.438 114.816C444.926 114.338 444.669 113.689 444.669 112.868C444.669 112.037 444.971 111.399 445.575 110.955C446.19 110.51 447.142 110.288 448.429 110.288H450.172V109.417C450.172 108.79 450.001 108.312 449.659 107.981C449.317 107.651 448.793 107.486 448.087 107.486C447.552 107.486 447.102 107.605 446.737 107.845C446.384 108.084 446.088 108.403 445.849 108.802L445.028 108.033C445.268 107.554 445.649 107.15 446.173 106.819C446.697 106.478 447.358 106.307 448.155 106.307C449.226 106.307 450.058 106.569 450.65 107.093C451.243 107.617 451.539 108.346 451.539 109.28V114.133H452.547V115.329H451.778ZM447.848 114.372C448.19 114.372 448.503 114.332 448.788 114.253C449.072 114.173 449.317 114.059 449.522 113.911C449.727 113.763 449.887 113.592 450.001 113.398C450.115 113.204 450.172 112.994 450.172 112.766V111.313H448.36C447.574 111.313 446.999 111.427 446.635 111.655C446.281 111.883 446.105 112.213 446.105 112.646V113.005C446.105 113.438 446.259 113.774 446.566 114.013C446.885 114.253 447.312 114.372 447.848 114.372Z" fill="white"/>
<path d="M454.498 115.329V106.512H455.865V107.947H455.933C456.036 107.719 456.15 107.509 456.275 107.315C456.412 107.11 456.571 106.933 456.753 106.785C456.947 106.637 457.169 106.523 457.42 106.443C457.671 106.352 457.967 106.307 458.308 106.307C458.889 106.307 459.425 106.449 459.915 106.734C460.405 107.007 460.769 107.463 461.008 108.101H461.042C461.202 107.623 461.498 107.207 461.931 106.854C462.375 106.489 462.973 106.307 463.725 106.307C464.625 106.307 465.326 106.603 465.827 107.195C466.34 107.776 466.596 108.602 466.596 109.673V115.329H465.229V109.912C465.229 109.126 465.075 108.534 464.768 108.135C464.46 107.736 463.97 107.537 463.298 107.537C463.025 107.537 462.763 107.571 462.512 107.64C462.273 107.708 462.056 107.81 461.863 107.947C461.669 108.084 461.515 108.26 461.401 108.477C461.287 108.682 461.23 108.927 461.23 109.212V115.329H459.863V109.912C459.863 109.126 459.71 108.534 459.402 108.135C459.095 107.736 458.616 107.537 457.967 107.537C457.693 107.537 457.431 107.571 457.181 107.64C456.93 107.708 456.708 107.81 456.514 107.947C456.321 108.084 456.161 108.26 456.036 108.477C455.922 108.682 455.865 108.927 455.865 109.212V115.329H454.498Z" fill="white"/>
<path d="M475.824 115.329C475.311 115.329 474.941 115.192 474.713 114.919C474.497 114.646 474.36 114.304 474.303 113.894H474.218C474.024 114.44 473.705 114.851 473.261 115.124C472.817 115.397 472.287 115.534 471.672 115.534C470.738 115.534 470.009 115.295 469.485 114.816C468.972 114.338 468.716 113.689 468.716 112.868C468.716 112.037 469.018 111.399 469.621 110.955C470.236 110.51 471.188 110.288 472.475 110.288H474.218V109.417C474.218 108.79 474.047 108.312 473.705 107.981C473.363 107.651 472.839 107.486 472.133 107.486C471.598 107.486 471.148 107.605 470.783 107.845C470.43 108.084 470.134 108.403 469.895 108.802L469.074 108.033C469.314 107.554 469.695 107.15 470.219 106.819C470.743 106.478 471.404 106.307 472.201 106.307C473.272 106.307 474.104 106.569 474.696 107.093C475.289 107.617 475.585 108.346 475.585 109.28V114.133H476.593V115.329H475.824ZM471.894 114.372C472.236 114.372 472.549 114.332 472.834 114.253C473.119 114.173 473.363 114.059 473.569 113.911C473.774 113.763 473.933 113.592 474.047 113.398C474.161 113.204 474.218 112.994 474.218 112.766V111.313H472.407C471.621 111.313 471.045 111.427 470.681 111.655C470.328 111.883 470.151 112.213 470.151 112.646V113.005C470.151 113.438 470.305 113.774 470.612 114.013C470.931 114.253 471.359 114.372 471.894 114.372Z" fill="white"/>
<path d="M477.656 115.329V114.184L482.662 107.708H477.809V106.512H484.32V107.537L479.21 114.133H484.456V115.329H477.656Z" fill="white"/>
<path d="M487.154 104.444C486.858 104.444 486.641 104.376 486.505 104.239C486.379 104.091 486.317 103.903 486.317 103.675V103.453C486.317 103.225 486.379 103.043 486.505 102.906C486.641 102.758 486.858 102.684 487.154 102.684C487.45 102.684 487.661 102.758 487.786 102.906C487.923 103.043 487.991 103.225 487.991 103.453V103.675C487.991 103.903 487.923 104.091 487.786 104.239C487.661 104.376 487.45 104.444 487.154 104.444ZM486.47 106.512H487.837V115.329H486.47V106.512Z" fill="white"/>
<path d="M492.69 115.329C492.212 115.329 491.847 115.198 491.597 114.936C491.357 114.663 491.238 114.309 491.238 113.877V107.708H489.785V106.512H490.606C490.902 106.512 491.101 106.455 491.204 106.341C491.318 106.216 491.375 106.005 491.375 105.709V104.068H492.605V106.512H494.536V107.708H492.605V114.133H494.399V115.329H492.69Z" fill="white"/>
<defs>
<linearGradient id="paint0_linear_1_356" x1="184.395" y1="56.837" x2="527.523" y2="56.837" gradientUnits="userSpaceOnUse">
<stop stop-color="white"/>
<stop offset="1" stop-color="#55CCCC"/>
</linearGradient>
<linearGradient id="paint1_linear_1_356" x1="184.395" y1="56.837" x2="527.523" y2="56.837" gradientUnits="userSpaceOnUse">
<stop stop-color="white"/>
<stop offset="1" stop-color="#55CCCC"/>
</linearGradient>
<linearGradient id="paint2_linear_1_356" x1="184.395" y1="56.837" x2="527.523" y2="56.837" gradientUnits="userSpaceOnUse">
<stop stop-color="white"/>
<stop offset="1" stop-color="#55CCCC"/>
</linearGradient>
<linearGradient id="paint3_linear_1_356" x1="184.395" y1="56.837" x2="527.523" y2="56.837" gradientUnits="userSpaceOnUse">
<stop stop-color="white"/>
<stop offset="1" stop-color="#55CCCC"/>
</linearGradient>
<linearGradient id="paint4_linear_1_356" x1="184.395" y1="56.837" x2="527.523" y2="56.837" gradientUnits="userSpaceOnUse">
<stop stop-color="white"/>
<stop offset="1" stop-color="#55CCCC"/>
</linearGradient>
<linearGradient id="paint5_linear_1_356" x1="184.395" y1="56.837" x2="527.523" y2="56.837" gradientUnits="userSpaceOnUse">
<stop stop-color="white"/>
<stop offset="1" stop-color="#55CCCC"/>
</linearGradient>
<linearGradient id="paint6_linear_1_356" x1="184.395" y1="56.837" x2="527.523" y2="56.837" gradientUnits="userSpaceOnUse">
<stop stop-color="white"/>
<stop offset="1" stop-color="#55CCCC"/>
</linearGradient>
<linearGradient id="paint7_linear_1_356" x1="184.395" y1="56.837" x2="527.523" y2="56.837" gradientUnits="userSpaceOnUse">
<stop stop-color="white"/>
<stop offset="1" stop-color="#55CCCC"/>
</linearGradient>
<linearGradient id="paint8_linear_1_356" x1="184.395" y1="56.837" x2="527.523" y2="56.837" gradientUnits="userSpaceOnUse">
<stop stop-color="white"/>
<stop offset="1" stop-color="#55CCCC"/>
</linearGradient>
</defs>
</svg>
