<svg width="135" height="37" viewBox="0 0 135 37" fill="none" xmlns="http://www.w3.org/2000/svg">
<path d="M0 0.718258H5.79448C9.02463 0.718258 11.2132 0.847674 12.3602 1.10651C14.0874 1.49475 15.4915 2.32949 16.5726 3.6107C17.6537 4.87898 18.1943 6.44491 18.1943 8.3085C18.1943 9.86149 17.8185 11.2268 17.067 12.4045C16.3287 13.5822 15.2674 14.4752 13.883 15.0834C12.4987 15.6787 10.587 15.9829 8.14787 15.9958L18.6096 29.2739H15.0103L4.56835 15.9958H2.90713V29.2739H0V0.718258ZM2.90713 3.51364V13.2198L7.91056 13.2587C9.84865 13.2587 11.2791 13.0775 12.202 12.7151C13.1381 12.3527 13.8633 11.7768 14.3774 10.9874C14.9048 10.185 15.1685 9.29206 15.1685 8.3085C15.1685 7.35082 14.9048 6.48374 14.3774 5.70724C13.8501 4.9178 13.1579 4.35484 12.3009 4.01836C11.4439 3.68188 10.02 3.51364 8.02922 3.51364H2.90713Z" fill="url(#paint0_linear_1_170)"/>
<path d="M19.8057 0.718258H36.4772V3.53305H22.7128V12.4627H36.3585V15.2581H22.7128V26.4591H36.3585V29.2739H19.8057V0.718258Z" fill="url(#paint1_linear_1_170)"/>
<path d="M62.3558 8.1532V37H59.6266V25.6438C58.4664 27.0285 57.1612 28.0703 55.7109 28.7691C54.2738 29.468 52.6983 29.8174 50.9843 29.8174C47.9388 29.8174 45.3349 28.7368 43.1727 26.5756C41.0236 24.4014 39.9491 21.7613 39.9491 18.6553C39.9491 15.614 41.0368 13.0128 43.2122 10.8515C45.3876 8.69028 48.0047 7.60965 51.0634 7.60965C52.8301 7.60965 54.4254 7.97849 55.8493 8.71616C57.2864 9.45383 58.5455 10.5603 59.6266 12.0357V8.1532H62.3558ZM51.281 10.2303C49.7384 10.2303 48.3145 10.6056 47.0093 11.3562C45.704 12.0939 44.6625 13.1357 43.8846 14.4816C43.1199 15.8276 42.7376 17.2511 42.7376 18.7524C42.7376 20.2406 43.1265 21.6642 43.9044 23.0231C44.6823 24.382 45.7238 25.4432 47.0291 26.2067C48.3475 26.9573 49.7582 27.3326 51.2612 27.3326C52.7774 27.3326 54.2145 26.9573 55.5725 26.2067C56.9304 25.4561 57.972 24.4402 58.6971 23.159C59.4355 21.8778 59.8046 20.4348 59.8046 18.83C59.8046 16.3841 58.9806 14.3393 57.3326 12.6957C55.6977 11.0521 53.6805 10.2303 51.281 10.2303Z" fill="url(#paint2_linear_1_170)"/>
<path d="M61.3448 0.718258H64.509L74.1401 22.7901L83.9492 0.718258H87.1134L74.4566 29.2739H73.8237L61.3448 0.718258Z" fill="url(#paint3_linear_1_170)"/>
<path d="M90.5704 0.718258H93.4775V29.2739H90.5704V0.718258Z" fill="url(#paint4_linear_1_170)"/>
<path d="M96.1433 23.9549L98.6154 22.499C100.356 25.6438 102.366 27.2162 104.647 27.2162C105.623 27.2162 106.539 26.9962 107.396 26.5561C108.253 26.1032 108.906 25.5014 109.354 24.7508C109.802 24.0002 110.026 23.2043 110.026 22.3631C110.026 21.4054 109.697 20.4671 109.038 19.5483C108.128 18.28 106.467 16.7529 104.054 14.9669C101.628 13.1681 100.118 11.8674 99.5251 11.0651C98.4967 9.71913 97.9825 8.2632 97.9825 6.69727C97.9825 5.45488 98.2858 4.32249 98.8923 3.30011C99.4987 2.27772 100.349 1.47534 101.443 0.89297C102.551 0.297656 103.751 0 105.043 0C106.414 0 107.693 0.336481 108.879 1.00944C110.079 1.66946 111.345 2.89244 112.676 4.67838L110.303 6.44491C109.209 5.02134 108.273 4.08307 107.495 3.63012C106.73 3.17716 105.893 2.95068 104.983 2.95068C103.81 2.95068 102.848 3.3001 102.096 3.99895C101.358 4.6978 100.989 5.55841 100.989 6.5808C100.989 7.20199 101.12 7.80378 101.384 8.38615C101.648 8.96852 102.129 9.60266 102.828 10.2886C103.21 10.6509 104.463 11.6021 106.585 13.1422C109.103 14.9669 110.831 16.5911 111.767 18.0147C112.703 19.4383 113.171 20.8683 113.171 22.3048C113.171 24.3755 112.367 26.1744 110.758 27.7015C109.163 29.2286 107.218 29.9921 104.924 29.9921C103.157 29.9921 101.555 29.5327 100.118 28.6139C98.6813 27.6821 97.3563 26.1291 96.1433 23.9549Z" fill="url(#paint5_linear_1_170)"/>
<path d="M118.328 0.718258H135V3.53305H121.236V12.4627H134.881V15.2581H121.236V26.4591H134.881V29.2739H118.328V0.718258Z" fill="url(#paint6_linear_1_170)"/>
<path d="M55.4533 18.5C55.4533 20.7937 53.5698 22.6531 51.2465 22.6531C48.9231 22.6531 47.0397 20.7937 47.0397 18.5C47.0397 16.2063 48.9231 14.3469 51.2465 14.3469C53.5698 14.3469 55.4533 16.2063 55.4533 18.5Z" fill="url(#paint7_linear_1_170)"/>
<defs>
<linearGradient id="paint0_linear_1_170" x1="47.2184" y1="14.0079" x2="133.944" y2="-28.034" gradientUnits="userSpaceOnUse">
<stop stop-color="#FDFDFD"/>
<stop offset="1" stop-color="#003350"/>
</linearGradient>
<linearGradient id="paint1_linear_1_170" x1="47.2184" y1="14.0079" x2="133.944" y2="-28.034" gradientUnits="userSpaceOnUse">
<stop stop-color="#FDFDFD"/>
<stop offset="1" stop-color="#003350"/>
</linearGradient>
<linearGradient id="paint2_linear_1_170" x1="47.2184" y1="14.0079" x2="133.944" y2="-28.034" gradientUnits="userSpaceOnUse">
<stop stop-color="#FDFDFD"/>
<stop offset="1" stop-color="#003350"/>
</linearGradient>
<linearGradient id="paint3_linear_1_170" x1="47.2184" y1="14.0079" x2="133.944" y2="-28.034" gradientUnits="userSpaceOnUse">
<stop stop-color="#FDFDFD"/>
<stop offset="1" stop-color="#003350"/>
</linearGradient>
<linearGradient id="paint4_linear_1_170" x1="47.2184" y1="14.0079" x2="133.944" y2="-28.034" gradientUnits="userSpaceOnUse">
<stop stop-color="#FDFDFD"/>
<stop offset="1" stop-color="#003350"/>
</linearGradient>
<linearGradient id="paint5_linear_1_170" x1="47.2184" y1="14.0079" x2="133.944" y2="-28.034" gradientUnits="userSpaceOnUse">
<stop stop-color="#FDFDFD"/>
<stop offset="1" stop-color="#003350"/>
</linearGradient>
<linearGradient id="paint6_linear_1_170" x1="47.2184" y1="14.0079" x2="133.944" y2="-28.034" gradientUnits="userSpaceOnUse">
<stop stop-color="#FDFDFD"/>
<stop offset="1" stop-color="#003350"/>
</linearGradient>
<linearGradient id="paint7_linear_1_170" x1="47.2184" y1="14.0079" x2="133.944" y2="-28.034" gradientUnits="userSpaceOnUse">
<stop stop-color="#FDFDFD"/>
<stop offset="1" stop-color="#003350"/>
</linearGradient>
</defs>
</svg>
