<svg xmlns="http://www.w3.org/2000/svg" width="192" height="54" viewBox="0 0 192 54" fill="none">
  <path d="M0 1.03272H8.22496C12.81 1.03272 15.9166 1.2188 17.5447 1.59095C19.9963 2.14918 21.9894 3.34937 23.524 5.19152C25.0585 7.01506 25.8258 9.26658 25.8258 11.9461C25.8258 14.179 25.2925 16.1421 24.2257 17.8354C23.1777 19.5287 21.6712 20.8126 19.7062 21.6871C17.7412 22.5431 15.0276 22.9804 11.5655 22.999L26.4153 42.0904H21.3063L6.48453 22.999H4.12652V42.0904H0V1.03272ZM4.12652 5.05196V19.0077L11.2286 19.0635C13.9796 19.0635 16.0101 18.803 17.3201 18.282C18.6489 17.7609 19.6782 16.9329 20.408 15.7978C21.1566 14.6442 21.5309 13.3602 21.5309 11.9461C21.5309 10.5691 21.1566 9.3224 20.408 8.20595C19.6594 7.07088 18.6769 6.26145 17.4605 5.77766C16.2441 5.29386 14.2229 5.05196 11.397 5.05196H4.12652Z" fill="white"/>
  <path d="M28.1131 1.03272H51.7774V5.07987H32.2396V17.9191H51.609V21.9383H32.2396V38.0432H51.609V42.0904H28.1131V1.03272Z" fill="white"/>
  <path d="M88.5107 11.7228V53.1991H84.6368V36.8709C82.99 38.8619 81.1372 40.3599 79.0787 41.3647C77.0388 42.3695 74.8024 42.8719 72.3696 42.8719C68.0465 42.8719 64.3505 41.3182 61.2813 38.2107C58.2309 35.0846 56.7056 31.2887 56.7056 26.8228C56.7056 22.4501 58.2496 18.7099 61.3374 15.6025C64.4253 12.495 68.1401 10.9413 72.4818 10.9413C74.9896 10.9413 77.254 11.4716 79.2752 12.5322C81.315 13.5928 83.1022 15.1838 84.6368 17.3051V11.7228H88.5107ZM72.7906 14.7093C70.6011 14.7093 68.5799 15.2489 66.7272 16.3282C64.8745 17.3888 63.396 18.8867 62.2919 20.8219C61.2064 22.7571 60.6637 24.8039 60.6637 26.9624C60.6637 29.1023 61.2158 31.1491 62.3199 33.1029C63.4241 35.0567 64.9025 36.5825 66.7553 37.6804C68.6267 38.7596 70.6291 39.2992 72.7626 39.2992C74.9147 39.2992 76.9546 38.7596 78.8822 37.6804C80.8097 36.6011 82.2882 35.1404 83.3175 33.2983C84.3655 31.4561 84.8895 29.3814 84.8895 27.074C84.8895 23.5572 83.7198 20.6172 81.3805 18.254C79.06 15.8909 76.1966 14.7093 72.7906 14.7093Z" fill="white"/>
  <path d="M87.0757 1.03272H91.5671L105.238 32.768L119.161 1.03272H123.653L105.687 42.0904H104.789L87.0757 1.03272Z" fill="white"/>
  <path d="M128.56 1.03272H132.686V42.0904H128.56V1.03272Z" fill="white"/>
  <path d="M136.47 34.4426L139.979 32.3493C142.45 36.8709 145.304 39.1318 148.541 39.1318C149.926 39.1318 151.227 38.8154 152.443 38.1828C153.66 37.5315 154.586 36.6663 155.222 35.587C155.858 34.5078 156.177 33.3634 156.177 32.1539C156.177 30.777 155.709 29.4279 154.773 28.1068C153.482 26.2832 151.124 24.0875 147.699 21.5197C144.256 18.9332 142.113 17.0632 141.271 15.9095C139.811 13.9743 139.081 11.8809 139.081 9.62943C139.081 7.8431 139.511 6.21493 140.372 4.74494C141.233 3.27494 142.44 2.12127 143.994 1.28392C145.566 0.427974 147.269 0 149.103 0C151.049 0 152.864 0.483797 154.548 1.45139C156.251 2.40038 158.048 4.1588 159.938 6.72664L156.57 9.26658C155.016 7.21975 153.688 5.87069 152.583 5.21943C151.498 4.56816 150.31 4.24253 149.018 4.24253C147.353 4.24253 145.987 4.74494 144.92 5.74974C143.872 6.75455 143.348 7.99196 143.348 9.46196C143.348 10.3551 143.535 11.2204 143.909 12.0577C144.284 12.8951 144.967 13.8068 145.959 14.793C146.501 15.314 148.279 16.6817 151.292 18.896C154.867 21.5197 157.318 23.8549 158.647 25.9018C159.976 27.9486 160.64 30.0047 160.64 32.0702C160.64 35.0474 159.498 37.6339 157.215 39.8295C154.951 42.0252 152.19 43.1231 148.934 43.1231C146.426 43.1231 144.153 42.4625 142.113 41.1414C140.073 39.8016 138.192 37.5687 136.47 34.4426Z" fill="white"/>
  <path d="M167.961 1.03272H191.625V5.07987H172.088V17.9191H191.457V21.9383H172.088V38.0432H191.457V42.0904H167.961V1.03272Z" fill="white"/>
  <path d="M78.713 26.5995C78.713 29.8974 76.0395 32.5709 72.7416 32.5709C69.4437 32.5709 66.7703 29.8974 66.7703 26.5995C66.7703 23.3017 69.4437 20.6282 72.7416 20.6282C76.0395 20.6282 78.713 23.3017 78.713 26.5995Z" fill="white"/>
</svg>