<svg width="353" height="98" viewBox="0 0 353 98" fill="none" xmlns="http://www.w3.org/2000/svg">
<path d="M0 1.90241H15.1515C23.5977 1.90241 29.3205 2.24519 32.3198 2.93075C36.8359 3.95908 40.5074 6.16999 43.3343 9.56348C46.1612 12.9227 47.5747 17.0703 47.5747 22.0063C47.5747 26.1196 46.5922 29.7359 44.6271 32.8552C42.6966 35.9745 39.9214 38.3396 36.3016 39.9507C32.6817 41.5275 27.6829 42.333 21.3052 42.3673L48.6606 77.5362H39.2491L11.9454 42.3673H7.60161V77.5362H0V1.90241ZM7.60161 9.3064V35.0147L20.6846 35.1175C25.7524 35.1175 29.4929 34.6376 31.9061 33.6779C34.3537 32.7181 36.2498 31.1927 37.5943 29.1018C38.9733 26.9766 39.6628 24.6114 39.6628 22.0063C39.6628 19.4697 38.9733 17.1731 37.5943 15.1165C36.2154 13.0255 34.4055 11.5345 32.1646 10.6432C29.9238 9.75201 26.2006 9.3064 20.9949 9.3064H7.60161Z" fill="url(#paint0_linear_1_406)"/>
<path d="M51.7881 1.90241H95.381V9.35782H59.3898V33.0094H95.0708V40.4134H59.3898V70.0808H95.0708V77.5362H51.7881V1.90241Z" fill="url(#paint1_linear_1_406)"/>
<path d="M163.049 21.595V98H155.913V67.9213C152.879 71.589 149.466 74.3484 145.674 76.1994C141.916 78.0504 137.796 78.9759 133.315 78.9759C125.351 78.9759 118.542 76.1137 112.889 70.3893C107.269 64.6306 104.46 57.638 104.46 49.4113C104.46 41.3561 107.304 34.4662 112.992 28.7419C118.68 23.0175 125.523 20.1553 133.521 20.1553C138.141 20.1553 142.312 21.1322 146.036 23.086C149.793 25.0399 153.086 27.9706 155.913 31.8783V21.595H163.049ZM134.09 27.0965C130.057 27.0965 126.334 28.0906 122.921 30.0787C119.508 32.0325 116.784 34.7919 114.75 38.3568C112.751 41.9217 111.751 45.6922 111.751 49.6684C111.751 53.6104 112.768 57.3809 114.802 60.9801C116.836 64.5792 119.559 67.39 122.972 69.4124C126.42 71.4005 130.108 72.3945 134.039 72.3945C138.003 72.3945 141.761 71.4005 145.312 69.4124C148.863 67.4243 151.586 64.7335 153.482 61.34C155.413 57.9465 156.378 54.1245 156.378 49.8741C156.378 43.3956 154.223 37.9797 149.914 33.6264C145.639 29.2732 140.365 27.0965 134.09 27.0965Z" fill="url(#paint2_linear_1_406)"/>
<path d="M160.405 1.90241H168.679L193.863 60.3631L219.512 1.90241H227.786L194.69 77.5362H193.035L160.405 1.90241Z" fill="url(#paint3_linear_1_406)"/>
<path d="M236.825 1.90241H244.426V77.5362H236.825V1.90241Z" fill="url(#paint4_linear_1_406)"/>
<path d="M251.397 63.4481L257.861 59.5918C262.412 67.9213 267.669 72.086 273.633 72.086C276.184 72.086 278.58 71.5033 280.821 70.3379C283.062 69.1382 284.768 67.5442 285.94 65.5561C287.113 63.568 287.699 61.4599 287.699 59.2319C287.699 56.6953 286.837 54.2102 285.113 51.7765C282.734 48.4173 278.391 44.3725 272.082 39.6422C265.738 34.8776 261.791 31.4327 260.24 29.3075C257.551 25.7426 256.206 21.8863 256.206 17.7387C256.206 14.4481 256.999 11.4488 258.585 8.74082C260.171 6.03288 262.394 3.90766 265.256 2.36516C268.152 0.788387 271.289 0 274.667 0C278.253 0 281.597 0.891221 284.699 2.67366C287.836 4.42183 291.146 7.66107 294.628 12.3914L288.423 17.0703C285.561 13.2998 283.113 10.8146 281.079 9.6149C279.08 8.41518 276.891 7.81532 274.512 7.81532C271.444 7.81532 268.927 8.74082 266.962 10.5918C265.032 12.4428 264.066 14.7223 264.066 17.4302C264.066 19.0756 264.411 20.6695 265.101 22.212C265.79 23.7545 267.048 25.4341 268.876 27.2508C269.875 28.2106 273.15 30.73 278.701 34.809C285.285 39.6422 289.802 43.944 292.249 47.7146C294.697 51.4851 295.921 55.2728 295.921 59.0776C295.921 64.5621 293.818 69.3267 289.612 73.3715C285.44 77.4162 280.356 79.4386 274.357 79.4386C269.737 79.4386 265.549 78.2218 261.791 75.788C258.033 73.32 254.569 69.2067 251.397 63.4481Z" fill="url(#paint5_linear_1_406)"/>
<path d="M309.407 1.90241H353V9.35782H317.009V33.0094H352.69V40.4134H317.009V70.0808H352.69V77.5362H309.407V1.90241Z" fill="url(#paint6_linear_1_406)"/>
<path d="M145 49C145 55.0751 140.075 60 134 60C127.925 60 123 55.0751 123 49C123 42.9249 127.925 38 134 38C140.075 38 145 42.9249 145 49Z" fill="url(#paint7_linear_1_406)"/>
<defs>
<linearGradient id="paint0_linear_1_406" x1="123.467" y1="37.102" x2="351.34" y2="-71.9523" gradientUnits="userSpaceOnUse">
<stop stop-color="#FDFDFD"/>
<stop offset="1" stop-color="#003350"/>
</linearGradient>
<linearGradient id="paint1_linear_1_406" x1="123.467" y1="37.102" x2="351.34" y2="-71.9523" gradientUnits="userSpaceOnUse">
<stop stop-color="#FDFDFD"/>
<stop offset="1" stop-color="#003350"/>
</linearGradient>
<linearGradient id="paint2_linear_1_406" x1="123.467" y1="37.102" x2="351.34" y2="-71.9523" gradientUnits="userSpaceOnUse">
<stop stop-color="#FDFDFD"/>
<stop offset="1" stop-color="#003350"/>
</linearGradient>
<linearGradient id="paint3_linear_1_406" x1="123.467" y1="37.102" x2="351.34" y2="-71.9523" gradientUnits="userSpaceOnUse">
<stop stop-color="#FDFDFD"/>
<stop offset="1" stop-color="#003350"/>
</linearGradient>
<linearGradient id="paint4_linear_1_406" x1="123.467" y1="37.102" x2="351.34" y2="-71.9523" gradientUnits="userSpaceOnUse">
<stop stop-color="#FDFDFD"/>
<stop offset="1" stop-color="#003350"/>
</linearGradient>
<linearGradient id="paint5_linear_1_406" x1="123.467" y1="37.102" x2="351.34" y2="-71.9523" gradientUnits="userSpaceOnUse">
<stop stop-color="#FDFDFD"/>
<stop offset="1" stop-color="#003350"/>
</linearGradient>
<linearGradient id="paint6_linear_1_406" x1="123.467" y1="37.102" x2="351.34" y2="-71.9523" gradientUnits="userSpaceOnUse">
<stop stop-color="#FDFDFD"/>
<stop offset="1" stop-color="#003350"/>
</linearGradient>
<linearGradient id="paint7_linear_1_406" x1="123.467" y1="37.102" x2="351.34" y2="-71.9523" gradientUnits="userSpaceOnUse">
<stop stop-color="#FDFDFD"/>
<stop offset="1" stop-color="#003350"/>
</linearGradient>
</defs>
</svg>
