<svg xmlns="http://www.w3.org/2000/svg" width="88" height="61" viewBox="0 0 88 61" fill="none">
  <path d="M43.4142 10.3214C41.0915 15.7555 38.7961 21.1584 36.4734 26.5925C34.6153 30.9023 30.4891 32.7761 26.7181 30.8086C28.303 27.0922 29.8879 23.407 31.4455 19.753C31.5821 19.4719 31.6914 19.1596 31.828 18.8785C36.0635 16.7861 39.7799 13.7255 43.3596 10.3838C43.3869 10.3526 43.3869 10.3214 43.4142 10.3214Z" fill="white"/>
  <path d="M44.4233 0L44.9991 1.07712C44.9171 1.07712 45.0811 1.07712 44.9991 1.07712C45.7642 1.07712 46.3654 1.76419 46.3654 2.63865C46.3654 3.5131 45.7642 4.20017 44.9991 4.20017C44.234 4.20017 43.6328 3.5131 43.6328 2.63865C43.6328 2.20142 43.7968 1.82665 44.0427 1.54558L43.3322 0.140204C40.9822 0.421278 39.124 1.85788 38.031 4.41879C36.4734 7.97907 34.9705 11.5393 33.4676 15.0996C34.2874 14.5687 35.1071 14.0066 35.9269 13.4132C39.0147 11.1021 41.8566 8.3226 44.7805 5.69924C46.2015 4.38756 47.6497 3.26326 49.1253 2.26388C47.8683 0.796045 46.3634 0 44.4233 0Z" fill="white"/>
  <path d="M61.2034 29.9654C60.3289 29.9654 59.5365 30.0278 58.7714 29.9341C58.5254 29.9029 58.1975 29.5594 58.0609 29.2783C55.8475 24.1877 53.6614 19.0659 51.5027 13.9441C51.366 13.6318 51.366 13.1946 51.4207 12.851C51.5847 11.758 51.2294 10.8523 50.437 10.5712C49.6445 10.2589 48.8247 10.6961 48.4968 11.6018C48.1416 12.5075 48.4968 13.3507 49.4532 13.9753C49.7265 14.1627 50.0271 14.4126 50.1637 14.7249C52.2678 19.6281 54.3446 24.5312 56.4487 29.4344C56.476 29.5281 56.5033 29.6531 56.558 29.9341C55.137 29.8717 53.7707 30.4338 52.5684 28.8098C51.0928 26.8423 49.262 25.2183 46.748 25.5306C45.6823 25.6555 44.6439 26.0928 43.6328 26.5612C41.884 27.4045 40.1624 28.4038 38.4409 29.2783C38.0037 29.4969 37.4845 29.5906 36.938 29.7467C38.195 26.8111 39.37 24.0316 40.5723 21.252C40.6816 21.0334 40.8729 20.8148 41.0642 20.6899C43.3869 19.1596 45.8189 18.3164 48.4968 19.4094C48.6061 19.4719 48.7701 19.4407 49.1253 19.5031C47.6224 16.0365 46.1741 12.6949 44.6712 9.1346C46.1468 7.79168 47.6497 6.51123 49.2346 5.29324C49.6172 4.98094 50.0271 4.69986 50.4096 4.41879C53.9893 12.6012 57.4324 20.846 60.9301 29.0597C61.0394 29.3408 61.0941 29.5906 61.2034 29.9654Z" fill="white"/>
  <path d="M5.45671 61C4.4429 61 3.51854 60.8199 2.68363 60.4598C1.84872 60.0997 1.19272 59.5795 0.715635 58.8992C0.238545 58.219 0 57.3887 0 56.4083C0 55.4079 0.238545 54.5876 0.715635 53.9474C1.19272 53.2872 1.84872 52.797 2.68363 52.4769C3.51854 52.1367 4.45284 51.9667 5.48653 51.9667H10.4065V50.8863C10.4065 49.8459 10.0984 49.0256 9.48216 48.4254C8.8858 47.8251 7.99125 47.525 6.79853 47.525C5.62568 47.525 4.71126 47.8151 4.05526 48.3954C3.39926 48.9556 2.95199 49.7158 2.71345 50.6762L0.506908 49.9559C0.745453 49.1356 1.12315 48.3954 1.64 47.7351C2.15684 47.0549 2.84266 46.5147 3.69745 46.1145C4.57211 45.6944 5.61574 45.4843 6.82835 45.4843C8.69695 45.4843 10.1481 45.9745 11.1818 46.9548C12.2155 47.9152 12.7323 49.2757 12.7323 51.0363V57.6688C12.7323 58.269 13.0106 58.5691 13.5672 58.5691H14.9091V60.5798H12.8516C12.1956 60.5798 11.6688 60.3998 11.2712 60.0396C10.8737 59.6595 10.6749 59.1593 10.6749 58.5391V58.389H10.3171C10.0984 58.7692 9.80022 59.1693 9.42252 59.5895C9.06471 59.9896 8.56774 60.3197 7.93162 60.5798C7.2955 60.8599 6.47053 61 5.45671 61ZM5.72508 58.9592C7.11659 58.9592 8.23974 58.5491 9.09452 57.7288C9.96919 56.8885 10.4065 55.7181 10.4065 54.2175V53.8874H5.57599C4.64169 53.8874 3.86642 54.0975 3.25017 54.5176C2.65381 54.9178 2.35563 55.528 2.35563 56.3483C2.35563 57.1686 2.66375 57.8088 3.27999 58.269C3.91611 58.7292 4.73114 58.9592 5.72508 58.9592Z" fill="white"/>
  <path d="M18.1352 60.5798V45.9044H20.4312V47.7351H20.8487C21.127 47.2149 21.5842 46.7347 22.2203 46.2946C22.8564 45.8544 23.751 45.6343 24.9039 45.6343C26.037 45.6343 26.9515 45.8844 27.6472 46.3846C28.3628 46.8848 28.8797 47.495 29.1978 48.2153H29.6152C29.9531 47.495 30.46 46.8848 31.1359 46.3846C31.8317 45.8844 32.7958 45.6343 34.0283 45.6343C35.0023 45.6343 35.8571 45.8344 36.5926 46.2346C37.3282 46.6347 37.9046 47.2149 38.3221 47.9752C38.7594 48.7155 38.9781 49.6058 38.9781 50.6462V60.5798H36.6225V50.8563C36.6225 49.8759 36.3342 49.1056 35.7577 48.5454C35.2011 47.9652 34.4159 47.6751 33.4021 47.6751C32.3287 47.6751 31.444 48.0252 30.7483 48.7255C30.0724 49.4257 29.7345 50.4361 29.7345 51.7566V60.5798H27.3788V50.8563C27.3788 49.8759 27.0906 49.1056 26.5141 48.5454C25.9575 47.9652 25.1723 47.6751 24.1585 47.6751C23.085 47.6751 22.2004 48.0252 21.5047 48.7255C20.8288 49.4257 20.4909 50.4361 20.4909 51.7566V60.5798H18.1352Z" fill="white"/>
  <path d="M48.262 61C47.2482 61 46.3238 60.8199 45.4889 60.4598C44.654 60.0997 43.998 59.5795 43.5209 58.8992C43.0438 58.219 42.8053 57.3887 42.8053 56.4083C42.8053 55.4079 43.0438 54.5876 43.5209 53.9474C43.998 53.2872 44.654 52.797 45.4889 52.4769C46.3238 52.1367 47.2581 51.9667 48.2918 51.9667H53.2118V50.8863C53.2118 49.8459 52.9037 49.0256 52.2875 48.4254C51.6911 47.8251 50.7965 47.525 49.6038 47.525C48.431 47.525 47.5166 47.8151 46.8606 48.3954C46.2046 48.9556 45.7573 49.7158 45.5187 50.6762L43.3122 49.9559C43.5507 49.1356 43.9284 48.3954 44.4453 47.7351C44.9621 47.0549 45.6479 46.5147 46.5027 46.1145C47.3774 45.6944 48.421 45.4843 49.6336 45.4843C51.5022 45.4843 52.9534 45.9745 53.9871 46.9548C55.0208 47.9152 55.5376 49.2757 55.5376 51.0363V57.6688C55.5376 58.269 55.8159 58.5691 56.3725 58.5691H57.7143V60.5798H55.6569C55.0009 60.5798 54.4741 60.3998 54.0765 60.0396C53.679 59.6595 53.4802 59.1593 53.4802 58.5391V58.389H53.1224C52.9037 58.7692 52.6055 59.1693 52.2278 59.5895C51.87 59.9896 51.373 60.3197 50.7369 60.5798C50.1008 60.8599 49.2758 61 48.262 61ZM48.5304 58.9592C49.9219 58.9592 51.045 58.5491 51.8998 57.7288C52.7745 56.8885 53.2118 55.7181 53.2118 54.2175V53.8874H48.3813C47.447 53.8874 46.6717 54.0975 46.0555 54.5176C45.4591 54.9178 45.1609 55.528 45.1609 56.3483C45.1609 57.1686 45.469 57.8088 46.0853 58.269C46.7214 58.7292 47.5364 58.9592 48.5304 58.9592Z" fill="white"/>
  <path d="M60.2845 60.5798V57.5187L69.558 48.3053V47.9752H60.5827V45.9044H72.0329V48.9656L62.7296 58.179V58.5391H72.2714V60.5798H60.2845Z" fill="white"/>
  <path d="M76.4902 60.5798V45.9044H78.8458V60.5798H76.4902ZM77.6829 43.6236C77.1661 43.6236 76.7288 43.4535 76.3709 43.1134C76.033 42.7733 75.864 42.3431 75.864 41.8229C75.864 41.2827 76.033 40.8426 76.3709 40.5024C76.7288 40.1623 77.1661 39.9923 77.6829 39.9923C78.1998 39.9923 78.6272 40.1623 78.9651 40.5024C79.303 40.8426 79.472 41.2827 79.472 41.8229C79.472 42.3431 79.303 42.7733 78.9651 43.1134C78.6272 43.4535 78.1998 43.6236 77.6829 43.6236Z" fill="white"/>
  <path d="M83.4676 60.5798C82.6327 60.5798 81.9867 60.3498 81.5295 59.8896C81.0921 59.4294 80.8735 58.7992 80.8735 57.9989V47.9752H76.4902V45.9044H80.8735V40.6825H83.2291V45.9044H88V47.9752H83.2291V57.6388C83.2291 58.239 83.5173 58.5391 84.0938 58.5391H87.344V60.5798H83.4676Z" fill="white"/>
</svg>