<svg width="53" height="53" viewBox="0 0 53 53" fill="none" xmlns="http://www.w3.org/2000/svg">
<path d="M53 26.5C53 41.1355 41.1355 53 26.5 53C11.8645 53 0 41.1355 0 26.5C0 11.8645 11.8645 0 26.5 0C41.1355 0 53 11.8645 53 26.5Z" fill="#D9D9D9"/>
<path d="M44.7187 28.1339V38.34C44.7187 39.0167 44.4499 39.6656 43.9714 40.1441C43.4929 40.6227 42.8439 40.8915 42.1672 40.8915H11.549C10.8723 40.8915 10.2233 40.6227 9.74479 40.1441C9.26629 39.6656 8.99747 39.0167 8.99747 38.34V28.1339C8.99747 27.4572 9.26629 26.8082 9.74479 26.3297C10.2233 25.8512 10.8723 25.5823 11.549 25.5823H19.2035C19.5419 25.5823 19.8664 25.7168 20.1056 25.956C20.3449 26.1953 20.4793 26.5198 20.4793 26.8581C20.4793 27.1965 20.3449 27.521 20.1056 27.7602C19.8664 27.9995 19.5419 28.1339 19.2035 28.1339H11.549V38.34H42.1672V28.1339H34.5127C34.1743 28.1339 33.8498 27.9995 33.6106 27.7602C33.3713 27.521 33.2369 27.1965 33.2369 26.8581C33.2369 26.5198 33.3713 26.1953 33.6106 25.956C33.8498 25.7168 34.1743 25.5823 34.5127 25.5823H42.1672C42.8439 25.5823 43.4929 25.8512 43.9714 26.3297C44.4499 26.8082 44.7187 27.4572 44.7187 28.1339ZM20.1061 18.8304L25.5823 13.3526V26.8581C25.5823 27.1965 25.7168 27.521 25.956 27.7602C26.1953 27.9995 26.5198 28.1339 26.8581 28.1339C27.1965 28.1339 27.521 27.9995 27.7602 27.7602C27.9995 27.521 28.1339 27.1965 28.1339 26.8581V13.3526L33.6101 18.8304C33.8494 19.0698 34.1741 19.2043 34.5127 19.2043C34.8512 19.2043 35.1759 19.0698 35.4153 18.8304C35.6547 18.591 35.7891 18.2663 35.7891 17.9278C35.7891 17.5892 35.6547 17.2646 35.4153 17.0252L27.7607 9.37063C27.6422 9.25201 27.5015 9.15791 27.3466 9.09371C27.1918 9.02951 27.0258 8.99646 26.8581 8.99646C26.6905 8.99646 26.5244 9.02951 26.3696 9.09371C26.2147 9.15791 26.074 9.25201 25.9555 9.37063L18.3009 17.0252C18.0616 17.2646 17.9271 17.5892 17.9271 17.9278C17.9271 18.2663 18.0616 18.591 18.3009 18.8304C18.5403 19.0698 18.865 19.2043 19.2035 19.2043C19.5421 19.2043 19.8668 19.0698 20.1061 18.8304ZM38.3399 33.2369C38.3399 32.8584 38.2277 32.4884 38.0174 32.1737C37.8072 31.8591 37.5083 31.6138 37.1586 31.4689C36.809 31.3241 36.4242 31.2862 36.053 31.36C35.6818 31.4339 35.3408 31.6161 35.0732 31.8838C34.8055 32.1514 34.6233 32.4924 34.5494 32.8636C34.4756 33.2348 34.5135 33.6196 34.6583 33.9692C34.8032 34.3189 35.0485 34.6178 35.3631 34.828C35.6778 35.0383 36.0478 35.1505 36.4263 35.1505C36.9338 35.1505 37.4206 34.9489 37.7795 34.5901C38.1383 34.2312 38.3399 33.7444 38.3399 33.2369Z" fill="#1D1F28"/>
</svg>
