<svg width="33" height="33" viewBox="0 0 33 33" fill="none" xmlns="http://www.w3.org/2000/svg">
<path d="M30.4865 7.55293C29.4445 8.01567 28.3252 8.32707 27.1504 8.46753C28.3503 7.74891 29.2703 6.61112 29.7036 5.25447C28.5822 5.91973 27.3388 6.40315 26.0148 6.66447C24.9554 5.53538 23.4463 4.82983 21.7761 4.82983C18.5684 4.82983 15.9684 7.43099 15.9684 10.6375C15.9684 11.0926 16.0206 11.5369 16.1186 11.9604C11.292 11.7187 7.01298 9.40607 4.14725 5.89142C3.64858 6.74939 3.36222 7.74674 3.36222 8.81268C3.36222 10.827 4.38678 12.605 5.94486 13.6459C4.99325 13.6154 4.09716 13.3541 3.31431 12.9196C3.31431 12.9447 3.31431 12.9675 3.31431 12.9926C3.31431 15.8071 5.31553 18.1546 7.9733 18.687C7.48661 18.8199 6.97269 18.8906 6.44244 18.8906C6.06898 18.8906 5.70424 18.8536 5.35037 18.7872C6.08967 21.0944 8.23461 22.7744 10.7759 22.8212C8.78882 24.3793 6.28457 25.308 3.56256 25.308C3.09437 25.308 2.63163 25.2808 2.17651 25.2264C4.74718 26.8737 7.79909 27.8352 11.0797 27.8352C21.763 27.8352 27.6033 18.9854 27.6033 11.3104C27.6033 11.0589 27.5979 10.8085 27.587 10.5591C28.7226 9.73925 29.708 8.71686 30.4865 7.55293Z" fill="white"/>
</svg>
