<svg width="219" height="63" viewBox="0 0 219 63" fill="none" xmlns="http://www.w3.org/2000/svg">
<g filter="url(#filter0_d_1_20)">
<path d="M10.368 8.84H16.696V44.4H28.512V50H10.368V8.84ZM34.5959 24.296H40.8679V50H34.5959V24.296ZM37.6759 19.48C36.5185 19.48 35.5479 19.088 34.7639 18.304C33.9799 17.52 33.5879 16.5493 33.5879 15.392C33.5879 14.3467 33.9799 13.4507 34.7639 12.704C35.5479 11.9573 36.5185 11.584 37.6759 11.584C38.7959 11.584 39.7479 11.9573 40.5319 12.704C41.3159 13.4507 41.7079 14.3467 41.7079 15.392C41.7079 16.5493 41.3159 17.52 40.5319 18.304C39.7852 19.088 38.8332 19.48 37.6759 19.48ZM64.4736 50.56C62.383 50.56 60.4976 50.056 58.8176 49.048C57.175 48.0027 56.0363 46.808 55.4016 45.464L55.2896 50H49.4656V8.84H55.4016V24.688L55.1216 29.056C55.7563 27.5627 56.9883 26.2933 58.8176 25.248C60.6843 24.1653 62.7003 23.624 64.8656 23.624C67.4043 23.624 69.607 24.2027 71.4736 25.36C73.3776 26.48 74.8336 28.0667 75.8416 30.12C76.8496 32.136 77.3536 34.488 77.3536 37.176C77.3536 39.9013 76.7563 42.272 75.5616 44.288C74.4043 46.304 72.8363 47.8533 70.8576 48.936C68.9163 50.0187 66.7883 50.56 64.4736 50.56ZM63.4656 45.52C65.8923 45.52 67.759 44.7547 69.0656 43.224C70.3723 41.656 71.0256 39.64 71.0256 37.176C71.0256 34.6747 70.3723 32.6587 69.0656 31.128C67.7963 29.56 65.9296 28.776 63.4656 28.776C61.3376 28.776 59.5456 29.5227 58.0896 31.016C56.6336 32.472 55.9056 34.3947 55.9056 36.784V37.176C55.9056 38.7813 56.2416 40.2187 56.9136 41.488C57.623 42.7573 58.5376 43.7467 59.6576 44.456C60.815 45.1653 62.0843 45.52 63.4656 45.52ZM95.9561 50.56C92.8948 50.56 90.3375 49.9627 88.2841 48.768C86.2308 47.536 84.7188 45.912 83.7481 43.896C82.7775 41.8427 82.2921 39.6027 82.2921 37.176C82.2921 34.4507 82.8521 32.0613 83.9721 30.008C85.1295 27.9547 86.7161 26.3867 88.7321 25.304C90.7481 24.184 93.0255 23.624 95.5641 23.624C99.5215 23.624 102.452 24.7253 104.356 26.928C106.297 29.0933 107.268 32.1547 107.268 36.112C107.268 37.12 107.212 38.1653 107.1 39.248H88.6201C89.0308 41.5253 89.8335 43.168 91.0281 44.176C92.2601 45.184 93.9588 45.688 96.1241 45.688C97.9161 45.688 99.3908 45.5387 100.548 45.24C101.705 44.9413 102.769 44.5307 103.74 44.008L105.588 48.32C104.655 48.9173 103.385 49.44 101.78 49.888C100.175 50.336 98.2335 50.56 95.9561 50.56ZM101.388 35.048C101.425 32.7333 100.921 31.1093 99.8761 30.176C98.8308 29.2053 97.3375 28.72 95.3961 28.72C91.4761 28.72 89.2175 30.8293 88.6201 35.048H101.388ZM113.441 24.296H119.489V29.336C120.086 27.6187 121.057 26.2373 122.401 25.192C123.745 24.1467 125.275 23.624 126.993 23.624C128.187 23.624 129.009 23.736 129.457 23.96L128.617 30.064C128.281 29.84 127.553 29.728 126.433 29.728C124.678 29.728 123.073 30.288 121.617 31.408C120.198 32.528 119.489 34.32 119.489 36.784V50H113.441V24.296ZM142.582 50.56C140.79 50.56 138.923 50.336 136.982 49.888C135.078 49.4027 133.715 48.8427 132.894 48.208L134.91 43.448C137.15 45.016 139.707 45.8 142.582 45.8C145.456 45.8 146.894 44.96 146.894 43.28C146.894 42.5333 146.595 41.9547 145.998 41.544C145.4 41.1333 144.336 40.648 142.806 40.088L140.678 39.304C138.438 38.408 136.664 37.344 135.358 36.112C134.051 34.8427 133.398 33.1813 133.398 31.128C133.398 28.776 134.312 26.9467 136.142 25.64C138.008 24.296 140.491 23.624 143.59 23.624C145.12 23.624 146.614 23.792 148.07 24.128C149.563 24.464 150.702 24.8933 151.486 25.416L149.302 30.232C148.816 29.7467 148.032 29.336 146.95 29C145.904 28.6267 144.728 28.44 143.422 28.44C140.771 28.44 139.446 29.2427 139.446 30.848C139.446 31.744 139.8 32.4347 140.51 32.92C141.219 33.368 142.376 33.872 143.982 34.432C144.131 34.4693 144.71 34.6747 145.718 35.048C148.107 35.9813 149.88 37.0453 151.038 38.24C152.195 39.4347 152.774 40.9653 152.774 42.832C152.774 45.3707 151.803 47.2933 149.862 48.6C147.958 49.9067 145.531 50.56 142.582 50.56ZM159.502 24.296H165.774V50H159.502V24.296ZM162.582 19.48C161.425 19.48 160.454 19.088 159.67 18.304C158.886 17.52 158.494 16.5493 158.494 15.392C158.494 14.3467 158.886 13.4507 159.67 12.704C160.454 11.9573 161.425 11.584 162.582 11.584C163.702 11.584 164.654 11.9573 165.438 12.704C166.222 13.4507 166.614 14.3467 166.614 15.392C166.614 16.5493 166.222 17.52 165.438 18.304C164.691 19.088 163.739 19.48 162.582 19.48ZM176.556 29.112H172.412V24.296H176.556V18.752C176.556 15.392 177.359 12.7973 178.964 10.968C180.607 9.10133 182.996 8.168 186.132 8.168C187.401 8.168 188.839 8.52266 190.444 9.232L189.268 14.944C189.007 14.6453 188.596 14.3653 188.036 14.104C187.513 13.8053 186.935 13.656 186.3 13.656C183.799 13.656 182.529 15.28 182.492 18.528V24.296H188.54V29.112H182.492V50H176.556V29.112ZM196.677 29.224H192.141V24.296H196.677V13.824L202.781 12.48V24.296H208.717V29.224H202.781V50H196.677V29.224Z" fill="url(#paint0_linear_1_20)"/>
</g>
<defs>
<filter id="filter0_d_1_20" x="0.368164" y="0.167969" width="218.349" height="62.3921" filterUnits="userSpaceOnUse" color-interpolation-filters="sRGB">
<feFlood flood-opacity="0" result="BackgroundImageFix"/>
<feColorMatrix in="SourceAlpha" type="matrix" values="0 0 0 0 0 0 0 0 0 0 0 0 0 0 0 0 0 0 127 0" result="hardAlpha"/>
<feOffset dy="2"/>
<feGaussianBlur stdDeviation="5"/>
<feComposite in2="hardAlpha" operator="out"/>
<feColorMatrix type="matrix" values="0 0 0 0 1 0 0 0 0 1 0 0 0 0 1 0 0 0 0.25 0"/>
<feBlend mode="normal" in2="BackgroundImageFix" result="effect1_dropShadow_1_20"/>
<feBlend mode="normal" in="SourceGraphic" in2="effect1_dropShadow_1_20" result="shape"/>
</filter>
<linearGradient id="paint0_linear_1_20" x1="14.5392" y1="27" x2="228.676" y2="27" gradientUnits="userSpaceOnUse">
<stop stop-color="#003350"/>
<stop offset="1" stop-color="#55CCCC"/>
</linearGradient>
</defs>
</svg>
